<svg version="1.1" xmlns="http://www.w3.org/2000/svg" xmlns:xlink="http://www.w3.org/1999/xlink" width="569.25954" height="198.19154" viewBox="0,0,569.25954,198.19154"><defs><radialGradient cx="240" cy="180.00001" r="99.09577" gradientUnits="userSpaceOnUse" id="color-1"><stop offset="0" stop-color="#ffffff"/><stop offset="1" stop-color="#ffffff" stop-opacity="0"/></radialGradient></defs><g transform="translate(230.16376,-80.90423)"><g data-paper-data="{&quot;isPaintingLayer&quot;:true}" fill-rule="nonzero" stroke="none" stroke-linecap="butt" stroke-linejoin="miter" stroke-miterlimit="10" stroke-dasharray="" stroke-dashoffset="0" style="mix-blend-mode: normal"><path d="M339.09579,180.00001c0,54.7291 -44.3667,99.09577 -99.09577,99.09577c-54.7291,0 -99.0958,-44.3667 -99.0958,-99.09577c0,-54.7291 44.3667,-99.09577 99.0958,-99.09577c54.7291,0 99.09577,44.3667 99.09577,99.09577z" fill="url(#color-1)" stroke-width="0"/><path d="M286.64008,180.00001c0,25.7586 -20.88145,46.64007 -46.64007,46.64007c-25.7586,0 -46.64007,-20.88145 -46.64007,-46.64007c0,-25.7586 20.88145,-46.64007 46.64007,-46.64007c25.7586,0 46.64007,20.88145 46.64007,46.64007z" fill="#ffffff" stroke-width="0"/><path d="M-230.16375,200.92216c0,-0.9665 0.7835,-1.75 1.75,-1.75c0.9665,0 1.75,0.7835 1.75,1.75c0,0.9665 -0.7835,1.75 -1.75,1.75c-0.9665,0 -1.75,-0.7835 -1.75,-1.75z" fill="#000000" stroke-width="0.5"/></g></g></svg>