<svg version="1.1" xmlns="http://www.w3.org/2000/svg" xmlns:xlink="http://www.w3.org/1999/xlink" width="51.24736" height="47.53866" viewBox="0,0,51.24736,47.53866"><defs><radialGradient cx="239.99999" cy="180" r="25.62367" gradientUnits="userSpaceOnUse" id="color-1"><stop offset="0" stop-color="#0013cc"/><stop offset="1" stop-color="#0013cc" stop-opacity="0"/></radialGradient></defs><g transform="translate(-214.37632,-156.23067)"><g data-paper-data="{&quot;isPaintingLayer&quot;:true}" fill-rule="nonzero" stroke="none" stroke-linecap="butt" stroke-linejoin="miter" stroke-miterlimit="10" stroke-dasharray="" stroke-dashoffset="0" style="mix-blend-mode: normal"><path d="M265.62368,180c0,13.12743 -11.47211,23.76933 -25.62367,23.76933c-14.15156,0 -25.62367,-10.64189 -25.62367,-23.76933c0,-13.12743 11.47211,-23.76933 25.62367,-23.76933c14.15157,0 25.62367,10.64189 25.62367,23.76933z" fill="none" stroke-width="0"/><path d="M253.6673,176.98105v2.32447c0,1.37836 -0.24013,3.33783 -0.75401,6.16658c-0.21132,1.31592 -0.61474,2.67026 -1.19586,4.02941c-0.00961,0.01921 -0.01921,0.03362 -0.02401,0.05283c-1.03257,2.32928 -2.7327,4.36079 -5.05717,6.03691c-2.47816,1.78178 -5.04276,2.68467 -7.63138,2.68467c-1.04697,0 -2.04592,-0.16329 -2.98243,-0.48026c-3.31862,-1.07099 -5.94085,-3.1073 -7.78987,-6.05132c-0.39862,-0.64836 -0.79243,-1.45039 -1.2823,-2.62224c-0.00961,-0.02882 -0.01921,-0.05283 -0.03362,-0.08164c-0.60513,-1.51763 -0.92691,-2.7327 -1.01336,-3.8277c-0.01441,-0.1873 -0.06724,-0.63875 -0.24013,-1.52243c-0.06243,-0.33138 -0.09605,-0.66757 -0.09605,-1.00375v-2.05553c-0.21132,-0.81164 -0.23053,-1.68092 -0.02401,-2.54059c0.07684,-0.33138 0.1873,-0.65316 0.32178,-0.95092c0,-0.58592 0.10086,-1.17184 0.29296,-1.72895c0.05283,-0.24013 0.12487,-0.47546 0.21132,-0.71079c0.0048,-0.0048 0.09125,-0.24974 0.21132,-0.92691c0.14408,-0.83086 0.41303,-1.90184 0.81645,-3.25138c0.0048,-0.01441 0.00961,-0.03362 0.01441,-0.04803c0.78283,-2.51658 2.36289,-4.90349 4.83145,-7.2952c0.01921,-0.01921 0.03362,-0.03362 0.05283,-0.04803c1.24868,-1.18145 2.68947,-1.93066 4.28395,-2.23803c0.28816,-0.05283 0.58112,-0.08164 0.87888,-0.09125c0.1825,-0.0048 0.66757,-0.03362 1.46,-0.07684c0.02882,0 0.05763,-0.0048 0.08645,-0.0048c2.33888,-0.09605 4.55289,0.40342 6.60362,1.47441c2.3677,1.21026 4.24072,3.03046 5.57105,5.41257c0.62914,1.12862 1.16704,2.49737 1.6473,4.1975c0.56191,1.92586 0.84046,3.62118 0.84046,5.17724z" fill="#0013cc" stroke-width="1"/><path d="M265.62366,180c0,13.12743 -11.47211,23.76933 -25.62367,23.76933c-14.15156,0 -25.62367,-10.64189 -25.62367,-23.76933c0,-13.12743 11.47211,-23.76933 25.62367,-23.76933c14.15157,0 25.62367,10.64189 25.62367,23.76933z" fill="url(#color-1)" stroke-width="0"/><path d="M248.38297,179.306c0,1.04217 -0.2262,2.80282 -0.67621,5.28049c-0.14072,0.90145 -0.42215,1.84517 -0.84526,2.83067c-0.64836,1.4648 -1.75296,2.76055 -3.31574,3.88677c-1.56326,1.12622 -3.07705,1.68957 -4.54137,1.68957c-0.47882,0 -0.91538,-0.07012 -1.30968,-0.21084c-2.14053,-0.67573 -3.80176,-1.95707 -4.98465,-3.84451c-0.2262,-0.36548 -0.52157,-0.9855 -0.88753,-1.85862c-0.3943,-0.9855 -0.61234,-1.74576 -0.6546,-2.28125c-0.04226,-0.53453 -0.14792,-1.2386 -0.31697,-2.11172v-3.12651c0.11238,-0.05571 0.05619,-0.14024 -0.16905,-0.2531h0.25358c0,-0.14072 0.05571,-0.40822 0.16905,-0.80252c0.1119,-0.3943 0.16905,-0.69014 0.16905,-0.88753c0,-0.16905 -0.04226,-0.3237 -0.12679,-0.46489c0.1119,0 0.21084,-0.04226 0.29536,-0.12679c-0.02834,-0.05619 -0.09893,-0.08453 -0.21084,-0.08453c0.02786,-0.02786 0.07732,-0.07012 0.14792,-0.12679c0.07012,-0.05619 0.11959,-0.09845 0.1484,-0.12679c-0.02882,-0.02834 -0.06339,-0.04947 -0.10614,-0.06387c-0.04226,-0.01345 -0.0778,-0.03458 -0.10566,-0.06339c0.16953,-0.45049 0.3237,-1.07003 0.46489,-1.85862c0.1119,-0.64739 0.33811,-1.53444 0.67573,-2.66114c0.50716,-1.63289 1.66171,-3.32294 3.46414,-5.06966c0.50716,-0.47834 1.0561,-0.77418 1.64778,-0.88705c0.08453,0 0.63347,-0.02834 1.64778,-0.08501c1.40813,-0.05571 2.73126,0.23965 3.97082,0.88753c1.43695,0.7324 2.56268,1.83076 3.37961,3.29509c0.42311,0.76026 0.81693,1.7885 1.18289,3.08377c0.42311,1.43599 0.63395,2.67555 0.63395,3.71724v2.32399zM245.59505,174.61719c-0.16809,-0.39382 -0.365,-0.90097 -0.58928,-1.52099c-0.28143,-1.26741 -1.11661,-2.43541 -2.50553,-3.5064c-1.3894,-1.07003 -2.67314,-1.54837 -3.85219,-1.43599c-0.53309,0.05667 -1.43166,0.9442 -2.69524,2.66162c-0.61762,0.81693 -1.23476,2.4503 -1.85189,4.90012c-0.56143,2.28125 -0.82845,4.04141 -0.79964,5.28049c0.05571,1.57718 0.14024,2.67555 0.25262,3.2946c0.19595,1.15503 0.61714,2.21113 1.26261,3.16878c0.61762,0.84478 1.095,1.39372 1.43166,1.64778c1.26261,0.90145 2.4551,1.35146 3.57844,1.35146c0.25214,0 0.49083,-0.02786 0.71559,-0.08453c0.53309,-0.08453 1.16416,-0.43608 1.89416,-1.0561c0.61762,-0.56335 1.08059,-1.08395 1.38988,-1.56326c0.42071,-0.70359 0.81405,-1.75968 1.17905,-3.1683c0.56095,-2.05553 0.84238,-4.23832 0.84238,-6.54791c0.00096,-1.2386 -0.08357,-2.37922 -0.25262,-3.42139z" fill="#000000" stroke-width="1"/></g></g></svg>