<svg version="1.1" xmlns="http://www.w3.org/2000/svg" xmlns:xlink="http://www.w3.org/1999/xlink" width="55.45946" height="51.44594" viewBox="0,0,55.45946,51.44594"><defs><radialGradient cx="240" cy="180" r="27.72973" gradientUnits="userSpaceOnUse" id="color-1"><stop offset="0" stop-color="#0013cc"/><stop offset="1" stop-color="#0013cc" stop-opacity="0"/></radialGradient></defs><g transform="translate(-212.27027,-154.27703)"><g data-paper-data="{&quot;isPaintingLayer&quot;:true}" fill-rule="nonzero" stroke="none" stroke-linecap="butt" stroke-linejoin="miter" stroke-miterlimit="10" stroke-dasharray="" stroke-dashoffset="0" style="mix-blend-mode: normal"><path d="M267.72973,180c0,14.2064 -12.41502,25.72297 -27.72973,25.72297c-15.3147,0 -27.72973,-11.51657 -27.72973,-25.72297c0,-14.2064 12.41502,-25.72297 27.72973,-25.72297c15.31471,0 27.72973,11.51657 27.72973,25.72297z" fill="url(#color-1)" stroke-width="0"/><path d="M255.669,192.46015c0,2.67145 -1.42928,5.02066 -3.82007,6.28362c-1.15901,0.61329 -2.51033,0.91474 -4.13191,0.91474c-0.68086,0 -1.41888,-0.05197 -2.25566,-0.15592c-0.06237,-0.0052 -0.12474,-0.01559 -0.18711,-0.02599c-1.29414,-0.2027 -1.89184,-0.22349 -2.08934,-0.22349h-0.06237c-0.08316,0.01039 -0.16632,0.01559 -0.24947,0.01559c-0.12993,0.01039 -0.31704,0.03118 -0.57171,0.05717c-0.67566,0.08836 -1.26816,0.12993 -1.81388,0.12993c-0.29625,0 -0.91474,0.01559 -2.15171,0.08316h-0.06237c-0.33783,0.01559 -0.63408,0.02079 -0.89914,0.02079c-0.70164,0 -1.28895,-0.04678 -1.82428,-0.14553c-1.75671,-0.30145 -3.31592,-1.21099 -4.40737,-2.58829c-1.30974,-1.64237 -1.5852,-3.28474 -1.5852,-4.37618c0,-1.41888 0.44178,-2.7702 1.24217,-3.90842c-0.51974,-0.04158 -1.02908,-0.10395 -1.52803,-0.1975c-3.07164,-0.55092 -4.66724,-3.16 -5.27013,-4.1475c-0.77441,-1.26296 -1.02908,-2.78059 -0.70684,-4.22546c0.10395,-0.47816 0.27026,-1.00309 0.53013,-1.68395c0.30664,-1.23178 1.00829,-2.30763 1.96461,-3.08204c1.30454,-1.7827 3.3575,-4.69322 6.1121,-8.67441c0.66526,-0.95632 1.03428,-1.54882 1.23178,-1.88664c0.50934,-0.91993 1.22658,-1.76711 2.24526,-2.66625c1.03947,-0.91993 1.95941,-1.51763 2.90013,-1.89184c0.17671,-0.07276 0.35862,-0.13513 0.54572,-0.18711c1.32013,-0.37941 2.74421,-0.33783 4.11112,0.11954c0.12474,0.03638 0.24428,0.08316 0.36382,0.12993c0.21829,0.03638 0.44178,0.08316 0.65487,0.14033c1.43447,0.3898 2.68184,1.16421 3.60697,2.24007c1.35132,1.58 1.63717,3.46664 1.74112,5.27013c0.01039,0.17151 0.01559,0.34822 0.01039,0.51974c-0.02079,0.56651 -0.02599,1.68395 0.04158,3.80447c0.01039,0.1923 0.02079,0.40539 0.03118,0.63408c3.65375,0.76921 5.55079,3.80447 5.55079,6.80855c0,0.66007 -0.08316,1.32013 -0.25987,2.02697c-0.20789,0.81599 -0.5873,1.58 -1.12263,2.23487c-0.5925,0.72243 -1.28375,1.32533 -2.05296,1.80349c2.26605,0.9927 4.16829,3.24835 4.16829,6.82934z" fill="#0013cc" stroke-width="1"/><path d="M249.17385,193.69193c-0.5187,0.27442 -1.52439,0.32016 -3.01707,0.13721c-1.55453,-0.24324 -2.71355,-0.33523 -3.47496,-0.2739c-0.12214,0 -0.47296,0.03118 -1.05143,0.09147c-0.45737,0.06133 -0.83834,0.09147 -1.1429,0.09147c-0.54832,0 -1.37159,0.03118 -2.46823,0.09147c-0.70216,0.03118 -1.18864,0.01663 -1.46306,-0.04262c-0.39656,-0.05717 -0.7084,-0.22972 -0.93709,-0.51714c-0.22868,-0.28741 -0.34303,-0.55924 -0.34303,-0.81755c0,-0.45945 0.25883,-0.83989 0.77701,-1.14186c0.51818,-0.30093 1.05143,-0.45165 1.60027,-0.45165c0.24376,0 0.45737,0 0.6398,0h2.78839c0.18347,0 0.44178,-0.04574 0.77753,-0.13877c0.06029,-1.10808 -0.06185,-3.18599 -0.36589,-6.2332c0,-0.49271 -0.00832,-1.00829 -0.02287,-1.54778c-0.01559,-0.53845 -0.14501,-0.97711 -0.38876,-1.31545c-1.70682,0.1528 -3.61113,0.41163 -5.71451,0.77701c-1.67667,0.30509 -2.86531,0.45737 -3.56539,0.45737c-0.5187,0 -1.0218,-0.04574 -1.5088,-0.13721c-0.36537,-0.06081 -0.83834,-0.56391 -1.41732,-1.5088c0.06081,-0.2739 0.22868,-0.74634 0.50311,-1.41732c0,-0.06029 0,-0.10603 0,-0.13721c0.09147,0 0.21257,-0.06081 0.36589,-0.18295c1.28011,-1.7063 3.56539,-4.9375 6.85689,-9.69153c0.6398,-0.91474 1.1429,-1.69174 1.5088,-2.33154c0.18295,-0.33523 0.53273,-0.73127 1.05091,-1.18864c0.51818,-0.45737 0.92929,-0.74686 1.23437,-0.86848c0.21309,-0.06081 0.45737,-0.04574 0.73127,0.04574c0.18347,0.09147 0.36589,0.16736 0.54884,0.22816c0.48751,0.09147 0.74686,0.13721 0.77701,0.13721c0.33575,0.09147 0.59458,0.2448 0.77753,0.45737c0.18295,0.21361 0.30405,0.83834 0.36537,1.87417c-0.03066,0.94488 -0.01559,2.34765 0.04574,4.20623c0.06081,1.37159 0.18347,3.4443 0.36589,6.21709c0.33523,0.03118 0.89862,0 1.69174,-0.09147c0.91422,-0.1211 1.52387,-0.18295 1.82895,-0.18295c1.12679,0 1.69122,0.4267 1.69122,1.28011c0,0.18295 -0.03066,0.39656 -0.09147,0.6398c-0.54884,0.67046 -1.32585,1.00569 -2.33102,1.00569c-0.15332,0 -0.38876,0 -0.70892,0c-0.31964,0 -0.55612,0 -0.7084,0c-0.36537,0 -0.68553,0.04626 -0.95995,0.13773c0,1.06702 0.06029,2.66729 0.18295,4.79977c0.18295,2.46875 0.36589,3.99314 0.54884,4.5716c0.82274,-0.03014 2.04153,-0.01455 3.65739,0.04574c0.76141,0.06133 1.14238,0.62524 1.14238,1.69174c0,0.54832 -0.25883,0.95995 -0.77701,1.23386zM241.03633,178.83473c-0.2739,-2.52956 -0.4423,-5.27273 -0.50311,-8.22899c-0.06133,0 -0.10707,-0.01507 -0.13721,-0.04574c0.09147,-0.09147 0.13721,-0.16736 0.13721,-0.22868c0,-0.03014 -0.04574,-0.1211 -0.13721,-0.2739c-0.06133,-0.1211 -0.06133,-0.22816 0,-0.32016c0.09147,-0.1211 0.13721,-0.2739 0.13721,-0.45685c-0.4267,0.4267 -0.85341,0.99062 -1.28011,1.69122c-0.70164,1.12835 -1.11276,1.78322 -1.23386,1.96616c-1.15849,1.52439 -2.62207,3.67246 -4.38866,6.44578c-0.03118,0.12162 0,0.22816 0.09147,0.31964c0.91422,0 2.133,-0.10655 3.65739,-0.31964c1.95005,-0.30509 3.16935,-0.48751 3.65687,-0.54884z" fill="#000000" stroke-width="1"/></g></g></svg>