<svg version="1.1" xmlns="http://www.w3.org/2000/svg" xmlns:xlink="http://www.w3.org/1999/xlink" width="51.24735" height="47.53867" viewBox="0,0,51.24735,47.53867"><defs><radialGradient cx="240" cy="180" r="25.62368" gradientUnits="userSpaceOnUse" id="color-1"><stop offset="0" stop-color="#0013cc"/><stop offset="1" stop-color="#0013cc" stop-opacity="0"/></radialGradient></defs><g transform="translate(-214.37632,-156.23067)"><g data-paper-data="{&quot;isPaintingLayer&quot;:true}" fill-rule="nonzero" stroke="none" stroke-linecap="butt" stroke-linejoin="miter" stroke-miterlimit="10" stroke-dasharray="" stroke-dashoffset="0" style="mix-blend-mode: normal"><path d="M265.62368,180c0,13.12744 -11.47211,23.76933 -25.62368,23.76933c-14.15156,0 -25.62368,-10.64189 -25.62368,-23.76933c0,-13.12744 11.47211,-23.76933 25.62368,-23.76933c14.15156,0 25.62368,10.64189 25.62368,23.76933z" fill="url(#color-1)" stroke-width="0"/><path d="M253.40893,176.72651c0,1.85382 -0.04322,3.60197 -0.13447,5.19645c-0.0048,0.03842 -0.0048,0.07204 -0.00961,0.10566c-0.1873,2.43974 -0.65316,4.50007 -1.42638,6.29625c-0.95092,2.16118 -2.45895,4.12546 -4.48566,5.87842c-0.33138,0.28336 -0.69158,0.52349 -1.08059,0.71559l-1.13342,0.56671c-1.825,0.96533 -3.98618,1.51763 -6.42112,1.6377c-0.01921,0.0048 -0.03362,0.0048 -0.04803,0.0048c-0.16809,0.0048 -0.33138,0.00961 -0.48987,0.00961c-2.33408,0 -4.51928,-0.67237 -6.50276,-1.99309c-0.28816,-0.19211 -0.55711,-0.41303 -0.80684,-0.65796c-0.57632,-0.58112 -0.9125,-1.18145 -1.14303,-1.6377c-0.43704,-0.88368 -0.65316,-1.75296 -0.65316,-2.64625c0,-0.50908 0.07204,-1.00855 0.21132,-1.48882c0.16329,-0.89809 0.50908,-1.73855 1.03737,-2.47816c-1.24388,-0.99895 -2.21882,-2.17079 -2.90079,-3.50592c-0.9125,-1.76257 -1.41678,-3.61158 -1.51283,-5.48941c-0.1777,-3.26579 0.41783,-5.85441 1.825,-7.88112c1.2823,-1.85862 3.0977,-3.51553 5.37895,-4.90349c2.47816,-1.50322 4.78342,-2.25724 7.04066,-2.30526c0.16809,-0.0048 0.33618,0 0.49947,0.00961c0.90289,0.06724 1.4552,0.10566 1.6473,0.12007c0.22092,0.00961 0.44184,0.02882 0.65796,0.06724c2.22842,0.37461 3.70763,1.35434 4.61533,2.21401c0.15368,0.12967 0.33618,0.29296 0.5523,0.48026c0.23533,0.20651 0.44664,0.43704 0.64355,0.68197l1.25829,1.59928c0.78283,0.97493 1.33993,1.86342 1.72414,2.74711c0.20651,0.3698 0.44664,0.81645 0.72039,1.33993c0.06724,0.12967 0.12967,0.25934 0.1873,0.39382c0.51868,1.23428 0.74921,2.75191 0.74921,4.9227z" fill="#0013cc" stroke-width="1"/><path d="M248.12651,176.72507c0,1.77409 -0.04322,3.40795 -0.12775,4.90012c-0.14072,1.83076 -0.47834,3.36568 -1.01287,4.60476c-0.62002,1.40909 -1.64826,2.73174 -3.08425,3.97082c-0.28191,0.14168 -0.67573,0.33859 -1.18289,0.59168c-1.15503,0.62002 -2.57661,0.97157 -4.26666,1.0561c-1.38028,0.05619 -2.66162,-0.30977 -3.84451,-1.09836c-0.02834,-0.02834 -0.0778,-0.11238 -0.14792,-0.2531c-0.07012,-0.14072 -0.10566,-0.23917 -0.10566,-0.29632c0.02786,-0.02738 0.0706,-0.05523 0.12775,-0.08453c-0.11382,-0.8443 0.35251,-1.26741 1.39901,-1.26741c0.3674,0 0.69206,0.0706 0.97541,0.21132c0.08453,0.11286 0.24061,0.23965 0.46682,0.38037c0.5086,0.16905 1.0172,0.2531 1.52724,0.2531c1.69581,0 3.19423,-0.76074 4.49478,-2.28125c1.24292,-1.40813 1.86582,-2.88638 1.86582,-4.43571c0,-0.28095 -0.02834,-0.53453 -0.08453,-0.75978c-1.3846,1.32361 -3.1779,1.98493 -5.38135,1.98493c-1.6108,0 -3.14284,-0.3722 -4.59708,-1.11901c-1.45472,-0.74585 -2.46519,-1.66891 -3.02998,-2.76728c-0.56527,-1.09836 -0.876,-2.21065 -0.93171,-3.33735c-0.11286,-2.05505 0.1825,-3.59093 0.88705,-4.60476c0.87264,-1.26741 2.13333,-2.40036 3.78063,-3.40026c1.64778,-0.99943 3.11883,-1.51379 4.41458,-1.54213c1.15407,0.08453 1.75968,0.12679 1.81636,0.12679c0.84478,0.14168 1.49218,0.45097 1.94314,0.92979c0.14072,0.11238 0.33811,0.28191 0.59168,0.50716c0.42215,0.53501 0.8443,1.07051 1.26741,1.60552c0.56287,0.70455 0.92883,1.29527 1.09836,1.77361c0.19595,0.33811 0.46441,0.83086 0.80204,1.47873c0.22524,0.53501 0.33907,1.49266 0.33907,2.87245zM244.95774,173.59856c-0.05715,-0.02737 -0.1484,-0.20363 -0.27471,-0.52781c-0.12679,-0.3237 -0.28912,-0.48603 -0.48555,-0.48603c-0.16953,-0.90097 -0.50716,-1.50611 -1.01384,-1.81636c-0.31025,-0.19691 -0.54942,-0.35155 -0.71799,-0.46489l0.04226,-0.04226c-0.08453,-0.14024 -0.25358,-0.22524 -0.50716,-0.25358c-0.16905,0 -0.33811,0 -0.50716,0c-0.92979,-0.19643 -1.59111,-0.2531 -1.98541,-0.16905c-0.87312,0.16905 -1.84517,0.66228 -2.91472,1.47873c-1.15503,0.84478 -1.90136,1.70397 -2.23899,2.57661c-0.22572,0.53501 -0.35251,1.12718 -0.38037,1.77409c-0.05667,0.7324 0.04995,1.58439 0.31841,2.55596c0.26799,0.97109 0.96773,1.85141 2.09827,2.64001c1.13054,0.78907 2.20441,1.15503 3.22209,1.09836c1.38508,0.19739 2.7423,-0.42263 4.07119,-1.85862c1.24292,-1.3798 1.86486,-2.83067 1.86486,-4.35166c0,-0.76026 -0.21084,-1.40813 -0.63299,-1.94314c0.02689,-0.05475 0.04178,-0.12535 0.04178,-0.21036z" fill="#000000" stroke-width="1"/></g></g></svg>