<svg version="1.1" xmlns="http://www.w3.org/2000/svg" xmlns:xlink="http://www.w3.org/1999/xlink" width="52.65138" height="48.84109" viewBox="0,0,52.65138,48.84109"><defs><radialGradient cx="239.29798" cy="179.34879" r="26.32569" gradientUnits="userSpaceOnUse" id="color-1"><stop offset="0" stop-color="#0013cc"/><stop offset="1" stop-color="#0013cc" stop-opacity="0"/></radialGradient></defs><g transform="translate(-212.97229,-154.92824)"><g data-paper-data="{&quot;isPaintingLayer&quot;:true}" fill-rule="nonzero" stroke="none" stroke-linecap="butt" stroke-linejoin="miter" stroke-miterlimit="10" stroke-dasharray="" stroke-dashoffset="0" style="mix-blend-mode: normal"><path d="M265.62367,179.34879c0,13.48709 -11.78641,24.42055 -26.32569,24.42055c-14.53928,0 -26.32569,-10.93345 -26.32569,-24.42055c0,-13.48709 11.78641,-24.42054 26.32569,-24.42054c14.53928,0 26.32569,10.93345 26.32569,24.42054z" fill="url(#color-1)" stroke-width="0"/><path d="M254.92263,184.96391c0,2.08717 -0.38487,3.97697 -1.14474,5.63487c-0.24178,0.64145 -0.59211,1.30263 -1.07072,2.0477c-0.21711,0.33553 -0.47368,0.64638 -0.75987,0.92763c-3.99178,3.91283 -9.44408,5.95559 -16.20888,6.06414h-0.08882c-1.36184,0 -2.76316,-0.32566 -4.16941,-0.97204c-0.08388,-0.03454 -0.16283,-0.07401 -0.24178,-0.11842c-1.23849,-0.64145 -2.52632,-1.60362 -3.94243,-2.93585c-1.87007,-1.73684 -2.95559,-3.27138 -3.44408,-4.89967c-0.06414,-0.15296 -0.14803,-0.35033 -0.25164,-0.58224c-0.2023,-0.46875 -0.34046,-0.96217 -0.40461,-1.47039c-0.08882,-0.2023 -0.16283,-0.40954 -0.22697,-0.62664c-0.19737,-0.69079 -0.29605,-1.43092 -0.29605,-2.20066c0,-2.09704 0.69572,-4.24342 2.0773,-6.38487c0.42928,-0.67105 0.88322,-1.24342 1.34704,-1.72697c-0.45395,-0.34539 -0.86842,-0.75 -1.23849,-1.21382c-0.09868,-0.11842 -0.1875,-0.24671 -0.27632,-0.375c-0.89309,-1.34211 -1.07072,-2.78783 -1.12007,-3.75987c-0.00493,-0.03947 -0.00493,-0.08388 -0.00987,-0.12336c-0.0148,-0.1875 -0.09868,-0.90296 -0.46875,-3.20724c-0.13322,-0.32566 -0.23191,-0.66118 -0.30099,-1.01151c-0.09375,-0.49836 -0.16283,-0.84375 -0.2023,-1.02632c-0.10362,-0.41941 -0.15789,-0.85855 -0.15789,-1.30757c0,-1.62829 0.54276,-3.11842 1.56908,-4.3125c0.08882,-0.10855 0.18257,-0.20724 0.28125,-0.30592c1.50493,-1.50493 3.55263,-2.30428 6.08388,-2.36842c0.04934,-0.00493 0.09375,-0.00493 0.14309,-0.00493c0.58224,0 2.09211,-0.01974 5.97039,-0.12829h0.14803c0.1727,0 1.04605,-0.01974 5.08717,-0.28125c0.42434,-0.05428 0.85855,-0.10855 1.30263,-0.15789c0.48355,-0.05921 0.92763,-0.08882 1.35197,-0.08882c1.33717,0 2.48191,0.29112 3.49342,0.88322c1.21382,0.72039 2.15132,1.76645 2.72862,3.0296c1.09539,2.38322 0.74507,5.03783 -0.94243,7.11513c-0.23684,0.29112 -0.50329,0.55757 -0.79441,0.79441c-0.375,0.55263 -0.82895,1.18421 -1.37664,1.89967c3.36513,1.87993 5.19572,4.42599 6.1875,6.72039c0.1875,0.30099 0.35526,0.62664 0.50822,0.97697c0.14803,0.33059 0.26151,0.68092 0.34046,1.03618c0.34539,1.56414 0.51809,3.06414 0.51809,4.46053zM222.87987,168.08891c-0.14309,-0.29112 -0.26151,-0.59704 -0.35526,-0.91776c0.08882,0.32072 0.20724,0.62664 0.34539,0.91776z" fill="#0013cc" stroke-width="1"/><path d="M249.10421,181.66736c0.26053,1.18668 0.39079,2.28602 0.39079,3.29852c0,1.38849 -0.24622,2.57566 -0.73766,3.55905c-0.08684,0.28964 -0.28964,0.68043 -0.6074,1.17187c-2.98076,2.92204 -7.14671,4.42697 -12.49983,4.51382c-0.57928,0 -1.2153,-0.15937 -1.90954,-0.47763c-0.78109,-0.40559 -1.69293,-1.09984 -2.73405,-2.08372c-1.18668,-1.09934 -1.8523,-1.98158 -1.99687,-2.6472c-0.08684,-0.23141 -0.23191,-0.57878 -0.43372,-1.04161c0,-0.05773 -0.10164,-0.69424 -0.30395,-1.90954c-0.05822,0.08684 -0.08684,0.24622 -0.08684,0.47763c-0.05822,-0.2023 -0.08684,-0.43421 -0.08684,-0.69424c0,-1.04161 0.40461,-2.19178 1.2153,-3.45049c0.8097,-1.25872 1.69293,-1.88783 2.6472,-1.88783c0.46283,0 0.91184,0.17418 1.34556,0.52303c0.11546,0.08734 0.17418,0.27632 0.17418,0.56595c0,0.11645 -0.05132,0.26941 -0.15197,0.45789c-0.10214,0.18849 -0.16727,0.34095 -0.19539,0.45691c-0.4051,0.34885 -0.81069,0.6972 -1.2153,1.04605c-0.57928,0.55164 -0.89704,1.01645 -0.95477,1.39391c-0.05822,0.2324 -0.08734,0.47911 -0.08734,0.74062c0,1.45263 0.65132,2.88306 1.95345,4.29128c1.30214,1.40822 2.67582,2.11234 4.12303,2.11234c0.26003,0 0.53487,-0.02911 0.82451,-0.08684c0.49145,-0.02961 1.2153,-0.08783 2.16957,-0.17467c1.12845,-0.26102 2.28553,-0.69474 3.4722,-1.30411c1.44671,-0.75345 2.34375,-1.55773 2.69062,-2.41332c0.34737,-0.85411 0.52105,-1.78964 0.52105,-2.80411c0,-0.98487 -0.17368,-1.8977 -0.52105,-2.73849c-0.08684,-0.2324 -0.21661,-0.56546 -0.3903,-1.00016c-1.15806,-1.73882 -2.44539,-2.82533 -3.8625,-3.26053c-0.34737,-0.11497 -1.07122,-0.18799 -2.17007,-0.21661c-1.09984,-0.02961 -1.89572,-0.07253 -2.38717,-0.13125c-0.95477,-0.11497 -1.72155,-0.36168 -2.30033,-0.73914c-0.17368,-0.20181 -0.26003,-0.44803 -0.26003,-0.73816c0,-0.69572 0.28865,-1.21776 0.86793,-1.56562c0.46283,-0.28964 1.31645,-1.44918 2.56085,-3.47812c0.83832,-1.18816 2.05362,-2.95609 3.64589,-5.30378c-3.55905,0 -7.08947,0.21661 -10.59029,0.65082c0,0.43421 0.10115,1.2301 0.30395,2.38717c0.26003,1.53355 0.40461,2.44539 0.43372,2.73454c0.02862,0.34687 -0.11546,0.70164 -0.43372,1.06283c-0.31875,0.36217 -0.72385,0.58618 -1.2153,0.67253c-0.46332,0.08734 -0.86842,-0.08684 -1.2153,-0.52056c-0.11595,-0.17418 -0.18898,-0.52105 -0.21711,-1.04161c0,-0.43421 -0.23191,-2.05411 -0.69424,-4.86118c-0.02911,-0.05773 -0.08684,-0.13026 -0.17368,-0.21711c-0.17418,-0.89605 -0.26053,-1.33026 -0.26053,-1.30214c0,-0.31826 0.08684,-0.57829 0.26053,-0.78109c0.49145,-0.49145 1.28684,-0.75197 2.38717,-0.78109c0.89605,0 2.93635,-0.04342 6.11941,-0.13076c0.6074,0 2.47401,-0.10066 5.59885,-0.30345c0.46283,-0.05773 0.93997,-0.11497 1.43191,-0.17368c0.72286,-0.08684 1.20789,-0.05773 1.45411,0.08684c0.24523,0.14507 0.42632,0.34687 0.54227,0.6074c0.23141,0.49243 0.15888,0.96957 -0.21661,1.43191c-0.2028,0.11595 -0.44901,0.33306 -0.73766,0.65082c-0.37648,0.6074 -0.94836,1.41069 -1.71464,2.40888c-0.76678,0.99819 -1.32385,1.78717 -1.67072,2.36546c-0.46332,0.81069 -1.17187,2.02549 -2.12714,3.64589c5.17895,0.78109 8.40493,2.90822 9.67845,6.38043c0.11546,0.11694 0.23191,0.30493 0.34737,0.56546z" fill="#000000" stroke-width="1"/></g></g></svg>