<svg version="1.1" xmlns="http://www.w3.org/2000/svg" xmlns:xlink="http://www.w3.org/1999/xlink" width="1351.59629" height="1282.25269" viewBox="0,0,1351.59629,1282.25269"><defs><radialGradient cx="239.99999" cy="180.00001" r="55.66666" gradientUnits="userSpaceOnUse" id="color-1"><stop offset="0" stop-color="#ffffff"/><stop offset="1" stop-color="#ffffff" stop-opacity="0"/></radialGradient></defs><g transform="translate(397.29664,402.12634)"><g data-paper-data="{&quot;isPaintingLayer&quot;:true}" fill-rule="nonzero" stroke="none" stroke-width="0" stroke-linecap="butt" stroke-linejoin="miter" stroke-miterlimit="10" stroke-dasharray="" stroke-dashoffset="0" style="mix-blend-mode: normal"><path d="M295.66667,180.00001c0,30.74385 -24.92282,55.66666 -55.66666,55.66666c-30.74385,0 -55.66667,-24.92282 -55.66667,-55.66666c0,-30.74385 24.92282,-55.66666 55.66667,-55.66666c30.74385,0 55.66666,24.92282 55.66666,55.66666z" fill="url(#color-1)"/><path d="M266,180.00001c0,14.35941 -11.64059,26 -26,26c-14.35941,0 -26,-11.64059 -26,-26c0,-14.35941 11.64059,-26 26,-26c14.35941,0 26,11.64059 26,26z" fill="#ffb3b3"/><path d="M239.19454,186.19993v-12.01201l715.10511,-31.03604v73.57357z" fill="#ffb3b3"/><path d="M245.54874,179.25948l-9.44929,7.41616l-465.9173,-543.37797l57.87686,-45.424z" fill="#ffb3b3"/><path d="M242.675,182.33634l-3.96572,-3.03136l424.03202,-575.96744l24.29003,18.56712z" fill="#ffb3b3"/><path d="M-382.96224,527.66549l-14.3344,-27.00497l637.68351,-323.88485l2.34031,4.40897z" data-paper-data="{&quot;index&quot;:null}" fill="#ffb3b3"/><path d="M117.31286,880.12636l-30.00133,-5.8876l150.36446,-699.23685l4.89818,0.96124z" data-paper-data="{&quot;index&quot;:null}" fill="#ffb3b3"/><path d="M235.43313,179.52657l1.34173,-1.96497l594.02862,398.17473l-8.21812,12.03543z" fill="#ffb3b3"/></g></g></svg>