<svg version="1.1" xmlns="http://www.w3.org/2000/svg" xmlns:xlink="http://www.w3.org/1999/xlink" width="64.55004" height="60.9051" viewBox="0,0,64.55004,60.9051"><defs><radialGradient cx="240" cy="180" r="32.27502" gradientUnits="userSpaceOnUse" id="color-1"><stop offset="0" stop-color="#0090cc"/><stop offset="1" stop-color="#0090cc" stop-opacity="0"/></radialGradient><radialGradient cx="246.82701" cy="177.30285" r="15.13502" gradientUnits="userSpaceOnUse" id="color-2"><stop offset="0" stop-color="#fffdc7"/><stop offset="1" stop-color="#fff500"/></radialGradient></defs><g transform="translate(-207.72498,-149.54745)"><g data-paper-data="{&quot;isPaintingLayer&quot;:true}" fill-rule="nonzero" stroke-linejoin="miter" stroke-miterlimit="10" stroke-dasharray="" stroke-dashoffset="0" style="mix-blend-mode: normal"><path d="M272.27502,180c0,16.8185 -14.45001,30.45255 -32.27502,30.45255c-17.825,0 -32.27502,-13.63407 -32.27502,-30.45255c0,-16.8185 14.45001,-30.45255 32.27502,-30.45255c17.825,0 32.27502,13.63407 32.27502,30.45255z" fill="url(#color-1)" stroke="#000000" stroke-width="0" stroke-linecap="butt"/><path d="M221.725,197.78929v-33.75h36.35v33.75z" fill="none" stroke="none" stroke-width="0" stroke-linecap="butt"/><path d="M255.13502,180.30602c0,1.82591 -1.98352,2.63299 -2.96955,4.16292c-1.30059,2.018 -3.76975,3.58362 -6.01504,4.97494c-1.92142,1.19063 -3.79385,1.13815 -6.45661,1.13815c-2.37487,0 -4.55521,-0.63152 -6.21689,-1.51899c-2.57154,-1.37342 -3.87942,-2.27745 -5.25587,-4.73026c-0.78022,-1.39033 -3.35607,-2.31224 -3.35607,-3.9247c0,-1.61084 2.37086,-2.93951 3.14959,-4.32875c1.2541,-2.23726 3.24494,-3.75653 5.52651,-5.03125c1.83845,-1.02715 3.75828,-1.63045 6.45891,-1.63045c2.93193,0 5.56341,0.53747 7.37641,1.94834c1.63276,1.27061 2.9328,2.20407 4.11813,3.87822c1.14966,1.62378 3.64047,3.07959 3.64047,5.06183z" fill="url(#color-2)" stroke="#000000" stroke-width="1" stroke-linecap="butt"/><path d="M223.90517,181.45853c0,-0.13807 0.11193,-0.25 0.25,-0.25c0.13807,0 0.25,0.11193 0.25,0.25c0,0.13807 -0.11193,0.25 -0.25,0.25c-0.13807,0 -0.25,-0.11193 -0.25,-0.25z" fill="#e3cf00" stroke="none" stroke-width="0.5" stroke-linecap="butt"/><path d="M230.53481,187.95557c0,-0.13807 0.11193,-0.25 0.25,-0.25c0.13807,0 0.25,0.11193 0.25,0.25c0,0.13807 -0.11193,0.25 -0.25,0.25c-0.13807,0 -0.25,-0.11193 -0.25,-0.25z" fill="#e3cf00" stroke="none" stroke-width="0.5" stroke-linecap="butt"/><path d="M234.64518,191.66817c0,-0.13807 0.11193,-0.25 0.25,-0.25c0.13807,0 0.25,0.11193 0.25,0.25c0,0.13807 -0.11193,0.25 -0.25,0.25c-0.13807,0 -0.25,-0.11193 -0.25,-0.25z" fill="#e3cf00" stroke="none" stroke-width="0.5" stroke-linecap="butt"/><path d="M226.15925,175.35926c0,-0.13807 0.11193,-0.25 0.25,-0.25c0.13807,0 0.25,0.11193 0.25,0.25c0,0.13807 -0.11193,0.25 -0.25,0.25c-0.13807,0 -0.25,-0.11193 -0.25,-0.25z" fill="#e3cf00" stroke="none" stroke-width="0.5" stroke-linecap="butt"/><path d="M228.67851,183.04964c0,-0.13807 0.11193,-0.25 0.25,-0.25c0.13807,0 0.25,0.11193 0.25,0.25c0,0.13807 -0.11193,0.25 -0.25,0.25c-0.13807,0 -0.25,-0.11193 -0.25,-0.25z" fill="#e3cf00" stroke="none" stroke-width="0.5" stroke-linecap="butt"/><path d="M224.56814,186.76223c0,-0.13807 0.11193,-0.25 0.25,-0.25c0.13807,0 0.25,0.11193 0.25,0.25c0,0.13807 -0.11193,0.25 -0.25,0.25c-0.13807,0 -0.25,-0.11193 -0.25,-0.25z" fill="#0090cc" stroke="none" stroke-width="0.5" stroke-linecap="butt"/><path d="M220.05998,178.14371c0,-0.13807 0.11193,-0.25 0.25,-0.25c0.13807,0 0.25,0.11193 0.25,0.25c0,0.13807 -0.11193,0.25 -0.25,0.25c-0.13807,0 -0.25,-0.11193 -0.25,-0.25z" fill="#e3cf00" stroke="none" stroke-width="0.5" stroke-linecap="butt"/><path d="M228.14814,176.02223c0,-0.13807 0.11193,-0.25 0.25,-0.25c0.13807,0 0.25,0.11193 0.25,0.25c0,0.13807 -0.11193,0.25 -0.25,0.25c-0.13807,0 -0.25,-0.11193 -0.25,-0.25z" fill="#e3cf00" stroke="none" stroke-width="0.5" stroke-linecap="butt"/><path d="M232.5237,168.46444c0,-0.13807 0.11193,-0.25 0.25,-0.25c0.13807,0 0.25,0.11193 0.25,0.25c0,0.13807 -0.11193,0.25 -0.25,0.25c-0.13807,0 -0.25,-0.11193 -0.25,-0.25z" fill="#0090cc" stroke="none" stroke-width="0.5" stroke-linecap="butt"/><path d="M231.99333,178.40889c0,-0.13807 0.11193,-0.25 0.25,-0.25c0.13807,0 0.25,0.11193 0.25,0.25c0,0.13807 -0.11193,0.25 -0.25,0.25c-0.13807,0 -0.25,-0.11193 -0.25,-0.25z" fill="#e3cf00" stroke="none" stroke-width="0.5" stroke-linecap="butt"/><path d="M241.93779,185.03853c0,-0.13807 0.11193,-0.25 0.25,-0.25c0.13807,0 0.25,0.11193 0.25,0.25c0,0.13807 -0.11193,0.25 -0.25,0.25c-0.13807,0 -0.25,-0.11193 -0.25,-0.25z" fill="#e3cf00" stroke="none" stroke-width="0.5" stroke-linecap="butt"/><path d="M252.41261,186.62965c0,-0.13807 0.11193,-0.25 0.25,-0.25c0.13807,0 0.25,0.11193 0.25,0.25c0,0.13807 -0.11193,0.25 -0.25,0.25c-0.13807,0 -0.25,-0.11193 -0.25,-0.25z" fill="#e3cf00" stroke="none" stroke-width="0.5" stroke-linecap="butt"/><path d="M249.36298,189.94445c0,-0.13807 0.11193,-0.25 0.25,-0.25c0.13807,0 0.25,0.11193 0.25,0.25c0,0.13807 -0.11193,0.25 -0.25,0.25c-0.13807,0 -0.25,-0.11193 -0.25,-0.25z" fill="#0090cc" stroke="none" stroke-width="0.5" stroke-linecap="butt"/><path d="M239.02074,192.06594c0,-0.13807 0.11193,-0.25 0.25,-0.25c0.13807,0 0.25,0.11193 0.25,0.25c0,0.13807 -0.11193,0.25 -0.25,0.25c-0.13807,0 -0.25,-0.11193 -0.25,-0.25z" fill="#e3cf00" stroke="none" stroke-width="0.5" stroke-linecap="butt"/><path d="M242.46816,189.2815c0,-0.13807 0.11193,-0.25 0.25,-0.25c0.13807,0 0.25,0.11193 0.25,0.25c0,0.13807 -0.11193,0.25 -0.25,0.25c-0.13807,0 -0.25,-0.11193 -0.25,-0.25z" fill="#e3cf00" stroke="none" stroke-width="0.5" stroke-linecap="butt"/><path d="M236.2363,184.24297c0,-0.13807 0.11193,-0.25 0.25,-0.25c0.13807,0 0.25,0.11193 0.25,0.25c0,0.13807 -0.11193,0.25 -0.25,0.25c-0.13807,0 -0.25,-0.11193 -0.25,-0.25z" fill="#e3cf00" stroke="none" stroke-width="0.5" stroke-linecap="butt"/><path d="M237.16445,170.18814c0,-0.13807 0.11193,-0.25 0.25,-0.25c0.13807,0 0.25,0.11193 0.25,0.25c0,0.13807 -0.11193,0.25 -0.25,0.25c-0.13807,0 -0.25,-0.11193 -0.25,-0.25z" fill="#e3cf00" stroke="none" stroke-width="0.5" stroke-linecap="butt"/><path d="M259.83781,178.67408c0,-0.13807 0.11193,-0.25 0.25,-0.25c0.13807,0 0.25,0.11193 0.25,0.25c0,0.13807 -0.11193,0.25 -0.25,0.25c-0.13807,0 -0.25,-0.11193 -0.25,-0.25z" fill="#e3cf00" stroke="none" stroke-width="0.5" stroke-linecap="butt"/><path d="M241.54001,176.81778c0,-0.13807 0.11193,-0.25 0.25,-0.25c0.13807,0 0.25,0.11193 0.25,0.25c0,0.13807 -0.11193,0.25 -0.25,0.25c-0.13807,0 -0.25,-0.11193 -0.25,-0.25z" fill="#ffea08" stroke="none" stroke-width="0.5" stroke-linecap="butt"/><path d="M246.57853,178.80667c0,-0.13807 0.11193,-0.25 0.25,-0.25c0.13807,0 0.25,0.11193 0.25,0.25c0,0.13807 -0.11193,0.25 -0.25,0.25c-0.13807,0 -0.25,-0.11193 -0.25,-0.25z" fill="#ffea08" stroke="none" stroke-width="0.5" stroke-linecap="butt"/><path d="M252.41261,181.72371c0,-0.13807 0.11193,-0.25 0.25,-0.25c0.13807,0 0.25,0.11193 0.25,0.25c0,0.13807 -0.11193,0.25 -0.25,0.25c-0.13807,0 -0.25,-0.11193 -0.25,-0.25z" fill="#ffea08" stroke="none" stroke-width="0.5" stroke-linecap="butt"/><path d="M256.78817,179.46964c0,-0.13807 0.11193,-0.25 0.25,-0.25c0.13807,0 0.25,0.11193 0.25,0.25c0,0.13807 -0.11193,0.25 -0.25,0.25c-0.13807,0 -0.25,-0.11193 -0.25,-0.25z" fill="#ffea08" stroke="none" stroke-width="0.5" stroke-linecap="butt"/><path d="M246.71112,181.06075c0,-0.13807 0.11193,-0.25 0.25,-0.25c0.13807,0 0.25,0.11193 0.25,0.25c0,0.13807 -0.11193,0.25 -0.25,0.25c-0.13807,0 -0.25,-0.11193 -0.25,-0.25z" fill="#ffea08" stroke="none" stroke-width="0.5" stroke-linecap="butt"/><path d="M239.68371,177.34815c0,-0.13807 0.11193,-0.25 0.25,-0.25c0.13807,0 0.25,0.11193 0.25,0.25c0,0.13807 -0.11193,0.25 -0.25,0.25c-0.13807,0 -0.25,-0.11193 -0.25,-0.25z" fill="#ffea08" stroke="none" stroke-width="0.5" stroke-linecap="butt"/><path d="M242.20297,170.45333c0,-0.13807 0.11193,-0.25 0.25,-0.25c0.13807,0 0.25,0.11193 0.25,0.25c0,0.13807 -0.11193,0.25 -0.25,0.25c-0.13807,0 -0.25,-0.11193 -0.25,-0.25z" fill="#ffea08" stroke="none" stroke-width="0.5" stroke-linecap="butt"/><path d="M247.37409,170.45333c0,-0.13807 0.11193,-0.25 0.25,-0.25c0.13807,0 0.25,0.11193 0.25,0.25c0,0.13807 -0.11193,0.25 -0.25,0.25c-0.13807,0 -0.25,-0.11193 -0.25,-0.25z" fill="#ffea08" stroke="none" stroke-width="0.5" stroke-linecap="butt"/><path d="M253.60595,174.29852c0,-0.13807 0.11193,-0.25 0.25,-0.25c0.13807,0 0.25,0.11193 0.25,0.25c0,0.13807 -0.11193,0.25 -0.25,0.25c-0.13807,0 -0.25,-0.11193 -0.25,-0.25z" fill="#fff587" stroke="none" stroke-width="0.5" stroke-linecap="butt"/><path d="M250.95409,176.41999c0,-0.13807 0.11193,-0.25 0.25,-0.25c0.13807,0 0.25,0.11193 0.25,0.25c0,0.13807 -0.11193,0.25 -0.25,0.25c-0.13807,0 -0.25,-0.11193 -0.25,-0.25z" fill="#fff587" stroke="none" stroke-width="0.5" stroke-linecap="butt"/><path d="M247.50668,174.29852c0,-0.13807 0.11193,-0.25 0.25,-0.25c0.13807,0 0.25,0.11193 0.25,0.25c0,0.13807 -0.11193,0.25 -0.25,0.25c-0.13807,0 -0.25,-0.11193 -0.25,-0.25z" fill="#fff587" stroke="none" stroke-width="0.5" stroke-linecap="butt"/><path d="M251.35187,171.11628c0,-0.13807 0.11193,-0.25 0.25,-0.25c0.13807,0 0.25,0.11193 0.25,0.25c0,0.13807 -0.11193,0.25 -0.25,0.25c-0.13807,0 -0.25,-0.11193 -0.25,-0.25z" fill="#fff587" stroke="none" stroke-width="0.5" stroke-linecap="butt"/><path d="M251.21928,174.29852c0,-0.13807 0.11193,-0.25 0.25,-0.25c0.13807,0 0.25,0.11193 0.25,0.25c0,0.13807 -0.11193,0.25 -0.25,0.25c-0.13807,0 -0.25,-0.11193 -0.25,-0.25z" fill="#fff587" stroke="none" stroke-width="0.5" stroke-linecap="butt"/><path d="M233.31926,179.20445c0,-0.13807 0.11193,-0.25 0.25,-0.25c0.13807,0 0.25,0.11193 0.25,0.25c0,0.13807 -0.11193,0.25 -0.25,0.25c-0.13807,0 -0.25,-0.11193 -0.25,-0.25z" fill="#e3cf00" stroke="none" stroke-width="0.5" stroke-linecap="butt"/><path d="M232.92148,186.62964c0,-0.13807 0.11193,-0.25 0.25,-0.25c0.13807,0 0.25,0.11193 0.25,0.25c0,0.13807 -0.11193,0.25 -0.25,0.25c-0.13807,0 -0.25,-0.11193 -0.25,-0.25z" fill="#e3cf00" stroke="none" stroke-width="0.5" stroke-linecap="butt"/><path d="M238.75556,188.08815c0,-0.13807 0.11193,-0.25 0.25,-0.25c0.13807,0 0.25,0.11193 0.25,0.25c0,0.13807 -0.11193,0.25 -0.25,0.25c-0.13807,0 -0.25,-0.11193 -0.25,-0.25z" fill="#e3cf00" stroke="none" stroke-width="0.5" stroke-linecap="butt"/><path d="M231.86074,182.91704c0,-0.13807 0.11193,-0.25 0.25,-0.25c0.13807,0 0.25,0.11193 0.25,0.25c0,0.13807 -0.11193,0.25 -0.25,0.25c-0.13807,0 -0.25,-0.11193 -0.25,-0.25z" fill="#e3cf00" stroke="none" stroke-width="0.5" stroke-linecap="butt"/><path d="M231.99333,173.10517c0,-0.13807 0.11193,-0.25 0.25,-0.25c0.13807,0 0.25,0.11193 0.25,0.25c0,0.13807 -0.11193,0.25 -0.25,0.25c-0.13807,0 -0.25,-0.11193 -0.25,-0.25z" fill="#e3cf00" stroke="none" stroke-width="0.5" stroke-linecap="butt"/><path d="M236.50148,178.54149c0,-0.13807 0.11193,-0.25 0.25,-0.25c0.13807,0 0.25,0.11193 0.25,0.25c0,0.13807 -0.11193,0.25 -0.25,0.25c-0.13807,0 -0.25,-0.11193 -0.25,-0.25z" fill="#e3cf00" stroke="none" stroke-width="0.5" stroke-linecap="butt"/><path d="M224.96591,179.86741c0,-0.13807 0.11193,-0.25 0.25,-0.25c0.13807,0 0.25,0.11193 0.25,0.25c0,0.13807 -0.11193,0.25 -0.25,0.25c-0.13807,0 -0.25,-0.11193 -0.25,-0.25z" fill="#e3cf00" stroke="none" stroke-width="0.5" stroke-linecap="butt"/><path d="M228.41332,178.67408c0,-0.13807 0.11193,-0.25 0.25,-0.25c0.13807,0 0.25,0.11193 0.25,0.25c0,0.13807 -0.11193,0.25 -0.25,0.25c-0.13807,0 -0.25,-0.11193 -0.25,-0.25z" fill="#e3cf00" stroke="none" stroke-width="0.5" stroke-linecap="butt"/><path d="M219.7948,179.07185c0,-0.13807 0.11193,-0.25 0.25,-0.25c0.13807,0 0.25,0.11193 0.25,0.25c0,0.13807 -0.11193,0.25 -0.25,0.25c-0.13807,0 -0.25,-0.11193 -0.25,-0.25z" fill="#e3cf00" stroke="none" stroke-width="0.5" stroke-linecap="butt"/><path d="M226.55703,184.90593c0,-0.13807 0.11193,-0.25 0.25,-0.25c0.13807,0 0.25,0.11193 0.25,0.25c0,0.13807 -0.11193,0.25 -0.25,0.25c-0.13807,0 -0.25,-0.11193 -0.25,-0.25z" fill="#e3cf00" stroke="none" stroke-width="0.5" stroke-linecap="butt"/><path d="M229.87185,190.20965c0,-0.13807 0.11193,-0.25 0.25,-0.25c0.13807,0 0.25,0.11193 0.25,0.25c0,0.13807 -0.11193,0.25 -0.25,0.25c-0.13807,0 -0.25,-0.11193 -0.25,-0.25z" fill="#0090cc" stroke="none" stroke-width="0.5" stroke-linecap="butt"/><path d="M244.72223,192.8615c0,-0.13807 0.11193,-0.25 0.25,-0.25c0.13807,0 0.25,0.11193 0.25,0.25c0,0.13807 -0.11193,0.25 -0.25,0.25c-0.13807,0 -0.25,-0.11193 -0.25,-0.25z" fill="#0090cc" stroke="none" stroke-width="0.5" stroke-linecap="butt"/><path d="M245.2526,187.42519c0,-0.13807 0.11193,-0.25 0.25,-0.25c0.13807,0 0.25,0.11193 0.25,0.25c0,0.13807 -0.11193,0.25 -0.25,0.25c-0.13807,0 -0.25,-0.11193 -0.25,-0.25z" fill="#e3cf00" stroke="none" stroke-width="0.5" stroke-linecap="butt"/><path d="M252.6778,186.89483c0,-0.13807 0.11193,-0.25 0.25,-0.25c0.13807,0 0.25,0.11193 0.25,0.25c0,0.13807 -0.11193,0.25 -0.25,0.25c-0.13807,0 -0.25,-0.11193 -0.25,-0.25z" fill="#e3cf00" stroke="none" stroke-width="0.5" stroke-linecap="butt"/><path d="M257.84891,182.25407c0,-0.13807 0.11193,-0.25 0.25,-0.25c0.13807,0 0.25,0.11193 0.25,0.25c0,0.13807 -0.11193,0.25 -0.25,0.25c-0.13807,0 -0.25,-0.11193 -0.25,-0.25z" fill="#e3cf00" stroke="none" stroke-width="0.5" stroke-linecap="butt"/><path d="M236.89926,167.27109c0,-0.13807 0.11193,-0.25 0.25,-0.25c0.13807,0 0.25,0.11193 0.25,0.25c0,0.13807 -0.11193,0.25 -0.25,0.25c-0.13807,0 -0.25,-0.11193 -0.25,-0.25z" fill="#e3cf00" stroke="none" stroke-width="0.5" stroke-linecap="butt"/><path d="M227.48518,169.92295c0,-0.13807 0.11193,-0.25 0.25,-0.25c0.13807,0 0.25,0.11193 0.25,0.25c0,0.13807 -0.11193,0.25 -0.25,0.25c-0.13807,0 -0.25,-0.11193 -0.25,-0.25z" fill="#0090cc" stroke="none" stroke-width="0.5" stroke-linecap="butt"/><path d="M234.51259,174.03333c0,-0.13807 0.11193,-0.25 0.25,-0.25c0.13807,0 0.25,0.11193 0.25,0.25c0,0.13807 -0.11193,0.25 -0.25,0.25c-0.13807,0 -0.25,-0.11193 -0.25,-0.25z" fill="#e3cf00" stroke="none" stroke-width="0.5" stroke-linecap="butt"/><path d="M227.61777,172.44221c0,-0.13807 0.11193,-0.25 0.25,-0.25c0.13807,0 0.25,0.11193 0.25,0.25c0,0.13807 -0.11193,0.25 -0.25,0.25c-0.13807,0 -0.25,-0.11193 -0.25,-0.25z" fill="#e3cf00" stroke="none" stroke-width="0.5" stroke-linecap="butt"/><path d="M241.00964,179.60222c0,-0.13807 0.11193,-0.25 0.25,-0.25c0.13807,0 0.25,0.11193 0.25,0.25c0,0.13807 -0.11193,0.25 -0.25,0.25c-0.13807,0 -0.25,-0.11193 -0.25,-0.25z" fill="#fff146" stroke="none" stroke-width="0.5" stroke-linecap="butt"/><path d="M244.72223,181.85631c0,-0.13807 0.11193,-0.25 0.25,-0.25c0.13807,0 0.25,0.11193 0.25,0.25c0,0.13807 -0.11193,0.25 -0.25,0.25c-0.13807,0 -0.25,-0.11193 -0.25,-0.25z" fill="#fff146" stroke="none" stroke-width="0.5" stroke-linecap="butt"/><path d="M251.21928,183.97779c0,-0.13807 0.11193,-0.25 0.25,-0.25c0.13807,0 0.25,0.11193 0.25,0.25c0,0.13807 -0.11193,0.25 -0.25,0.25c-0.13807,0 -0.25,-0.11193 -0.25,-0.25z" fill="#fff146" stroke="none" stroke-width="0.5" stroke-linecap="butt"/><path d="M239.94889,174.82889c0,-0.13807 0.11193,-0.25 0.25,-0.25c0.13807,0 0.25,0.11193 0.25,0.25c0,0.13807 -0.11193,0.25 -0.25,0.25c-0.13807,0 -0.25,-0.11193 -0.25,-0.25z" fill="#fff146" stroke="none" stroke-width="0.5" stroke-linecap="butt"/><path d="M241.54001,166.87332c0,-0.13807 0.11193,-0.25 0.25,-0.25c0.13807,0 0.25,0.11193 0.25,0.25c0,0.13807 -0.11193,0.25 -0.25,0.25c-0.13807,0 -0.25,-0.11193 -0.25,-0.25z" fill="#fff146" stroke="none" stroke-width="0.5" stroke-linecap="butt"/><path d="M251.01612,178.74238c0,-0.13807 0.11193,-0.25 0.25,-0.25c0.13807,0 0.25,0.11193 0.25,0.25c0,0.13807 -0.11193,0.25 -0.25,0.25c-0.13807,0 -0.25,-0.11193 -0.25,-0.25z" fill="#fff146" stroke="none" stroke-width="0.5" stroke-linecap="butt"/><path d="M255.31296,181.78161c0,-0.13807 0.11193,-0.25 0.25,-0.25c0.13807,0 0.25,0.11193 0.25,0.25c0,0.13807 -0.11193,0.25 -0.25,0.25c-0.13807,0 -0.25,-0.11193 -0.25,-0.25z" fill="#fff146" stroke="none" stroke-width="0.5" stroke-linecap="butt"/><path d="M248.29129,181.36241c0,-0.13807 0.11193,-0.25 0.25,-0.25c0.13807,0 0.25,0.11193 0.25,0.25c0,0.13807 -0.11193,0.25 -0.25,0.25c-0.13807,0 -0.25,-0.11193 -0.25,-0.25z" fill="#fff146" stroke="none" stroke-width="0.5" stroke-linecap="butt"/><path d="M241.47922,180.3144c0,-0.13807 0.11193,-0.25 0.25,-0.25c0.13807,0 0.25,0.11193 0.25,0.25c0,0.13807 -0.11193,0.25 -0.25,0.25c-0.13807,0 -0.25,-0.11193 -0.25,-0.25z" fill="#fff146" stroke="none" stroke-width="0.5" stroke-linecap="butt"/><path d="M240.64081,172.45432c0,-0.13807 0.11193,-0.25 0.25,-0.25c0.13807,0 0.25,0.11193 0.25,0.25c0,0.13807 -0.11193,0.25 -0.25,0.25c-0.13807,0 -0.25,-0.11193 -0.25,-0.25z" fill="#fff146" stroke="none" stroke-width="0.5" stroke-linecap="butt"/><path d="M238.47782,169.34114c0,-0.13807 0.11193,-0.25 0.25,-0.25c0.13807,0 0.25,0.11193 0.25,0.25c0,0.13807 -0.11193,0.25 -0.25,0.25c-0.13807,0 -0.25,-0.11193 -0.25,-0.25z" fill="#fff146" stroke="none" stroke-width="0.5" stroke-linecap="butt"/><path d="M246.93614,168.1721c0,-0.13807 0.11193,-0.25 0.25,-0.25c0.13807,0 0.25,0.11193 0.25,0.25c0,0.13807 -0.11193,0.25 -0.25,0.25c-0.13807,0 -0.25,-0.11193 -0.25,-0.25z" fill="#fff146" stroke="none" stroke-width="0.5" stroke-linecap="butt"/><path d="M249.75558,169.6162c0,-0.13807 0.11193,-0.25 0.25,-0.25c0.13807,0 0.25,0.11193 0.25,0.25c0,0.13807 -0.11193,0.25 -0.25,0.25c-0.13807,0 -0.25,-0.11193 -0.25,-0.25z" fill="#0090cc" stroke="none" stroke-width="0.5" stroke-linecap="butt"/><path d="M246.66107,175.73645c0,-0.13807 0.11193,-0.25 0.25,-0.25c0.13807,0 0.25,0.11193 0.25,0.25c0,0.13807 -0.11193,0.25 -0.25,0.25c-0.13807,0 -0.25,-0.11193 -0.25,-0.25z" fill="#fff8ad" stroke="none" stroke-width="0.5" stroke-linecap="butt"/><path d="M249.82435,178.28083c0,-0.13807 0.11193,-0.25 0.25,-0.25c0.13807,0 0.25,0.11193 0.25,0.25c0,0.13807 -0.11193,0.25 -0.25,0.25c-0.13807,0 -0.25,-0.11193 -0.25,-0.25z" fill="#fff8ad" stroke="none" stroke-width="0.5" stroke-linecap="butt"/><path d="M244.9419,175.59892c0,-0.06432 0.02429,-0.12296 0.06419,-0.16726c-0.11497,-0.02249 -0.20172,-0.12379 -0.20172,-0.24534c0,-0.13807 0.11193,-0.25 0.25,-0.25c0.13807,0 0.25,0.11193 0.25,0.25c0,0.06432 -0.02429,0.12296 -0.06419,0.16726c0.11497,0.02249 0.20172,0.12379 0.20172,0.24534c0,0.13807 -0.11193,0.25 -0.25,0.25c-0.13807,0 -0.25,-0.11193 -0.25,-0.25z" fill="#fff8ad" stroke="none" stroke-width="0.5" stroke-linecap="butt"/><path d="M246.86737,171.88551c0,-0.13807 0.11193,-0.25 0.25,-0.25c0.13807,0 0.25,0.11193 0.25,0.25c0,0.13807 -0.11193,0.25 -0.25,0.25c-0.13807,0 -0.25,-0.11193 -0.25,-0.25z" fill="#fff8ad" stroke="none" stroke-width="0.5" stroke-linecap="butt"/><path d="M249.96188,173.87975c0,-0.13807 0.11193,-0.25 0.25,-0.25c0.13807,0 0.25,0.11193 0.25,0.25c0,0.13807 -0.11193,0.25 -0.25,0.25c-0.13807,0 -0.25,-0.11193 -0.25,-0.25z" fill="#fff8ad" stroke="none" stroke-width="0.5" stroke-linecap="butt"/><path d="M250.09942,177.11179c0,-0.13807 0.11193,-0.25 0.25,-0.25c0.13807,0 0.25,0.11193 0.25,0.25c0,0.13807 -0.11193,0.25 -0.25,0.25c-0.13807,0 -0.25,-0.11193 -0.25,-0.25z" fill="#fff8ad" stroke="none" stroke-width="0.5" stroke-linecap="butt"/><path d="M249.13668,178.89973c0,-0.13807 0.11193,-0.25 0.25,-0.25c0.13807,0 0.25,0.11193 0.25,0.25c0,0.13807 -0.11193,0.25 -0.25,0.25c-0.13807,0 -0.25,-0.11193 -0.25,-0.25z" fill="#fff8ad" stroke="none" stroke-width="0.5" stroke-linecap="butt"/><path d="M244.66683,172.98578c0,-0.13807 0.11193,-0.25 0.25,-0.25c0.13807,0 0.25,0.11193 0.25,0.25c0,0.13807 -0.11193,0.25 -0.25,0.25c-0.13807,0 -0.25,-0.11193 -0.25,-0.25z" fill="#fff8ad" stroke="none" stroke-width="0.5" stroke-linecap="butt"/><path d="M247.27998,172.36688c0,-0.13807 0.11193,-0.25 0.25,-0.25c0.13807,0 0.25,0.11193 0.25,0.25c0,0.13807 -0.11193,0.25 -0.25,0.25c-0.13807,0 -0.25,-0.11193 -0.25,-0.25z" fill="#fff8ad" stroke="none" stroke-width="0.5" stroke-linecap="butt"/><path d="M247.00491,178.62466c0,-0.13807 0.11193,-0.25 0.25,-0.25c0.13807,0 0.25,0.11193 0.25,0.25c0,0.13807 -0.11193,0.25 -0.25,0.25c-0.13807,0 -0.25,-0.11193 -0.25,-0.25z" fill="#fff261" stroke="none" stroke-width="0.5" stroke-linecap="butt"/><path d="M249.41175,175.87399c0,-0.13807 0.11193,-0.25 0.25,-0.25c0.13807,0 0.25,0.11193 0.25,0.25c0,0.13807 -0.11193,0.25 -0.25,0.25c-0.13807,0 -0.25,-0.11193 -0.25,-0.25z" fill="#fff261" stroke="none" stroke-width="0.5" stroke-linecap="butt"/><path d="M244.323,174.98002c0,-0.13807 0.11193,-0.25 0.25,-0.25c0.13807,0 0.25,0.11193 0.25,0.25c0,0.06235 -0.02283,0.11937 -0.06058,0.16316c0.00558,-0.00037 0.01121,-0.00056 0.01688,-0.00056c0.13807,0 0.25,0.11193 0.25,0.25c0,0.13807 -0.11193,0.25 -0.25,0.25c-0.13807,0 -0.25,-0.11193 -0.25,-0.25c0,-0.06235 0.02283,-0.11937 0.06058,-0.16316c-0.00558,0.00037 -0.01121,0.00056 -0.01688,0.00056c-0.13807,0 -0.25,-0.11193 -0.25,-0.25z" fill="#fff261" stroke="none" stroke-width="0.5" stroke-linecap="butt"/><path d="M249.89312,171.95428c0,-0.13807 0.11193,-0.25 0.25,-0.25c0.10222,0 0.19011,0.06135 0.22886,0.14924c0.04568,-0.04948 0.11109,-0.08047 0.18374,-0.08047c0.13807,0 0.25,0.11193 0.25,0.25c0,0.13807 -0.11193,0.25 -0.25,0.25c-0.10222,0 -0.19011,-0.06135 -0.22886,-0.14924c-0.04568,0.04948 -0.11109,0.08047 -0.18374,0.08047c-0.13807,0 -0.25,-0.11193 -0.25,-0.25z" fill="#fff261" stroke="none" stroke-width="0.5" stroke-linecap="butt"/><path d="M248.24271,175.53015c0,-0.13807 0.11193,-0.25 0.25,-0.25c0.13807,0 0.25,0.11193 0.25,0.25c0,0.13807 -0.11193,0.25 -0.25,0.25c-0.13807,0 -0.25,-0.11193 -0.25,-0.25z" fill="#fff261" stroke="none" stroke-width="0.5" stroke-linecap="butt"/><path d="M245.49204,172.57318c0,-0.13807 0.11193,-0.25 0.25,-0.25c0.13807,0 0.25,0.11193 0.25,0.25c0,0.13807 -0.11193,0.25 -0.25,0.25c-0.13807,0 -0.25,-0.11193 -0.25,-0.25z" fill="#fff261" stroke="none" stroke-width="0.5" stroke-linecap="butt"/><path d="M241.06189,162.80971l22.33276,17.17895c0,0 -12.6736,-1.44285 -18.97401,-2.22329c-0.51334,0.04321 -1.7434,-0.11418 -2.06448,-0.14219c-0.38092,-0.03323 -0.51548,-0.32537 -0.61244,-0.11163c-0.2193,0.48344 0.03773,1.85126 0.09009,2.54599c0.02758,0.36592 -0.16179,-0.91453 -0.0213,0.8199c0.01963,0.24231 0.11334,1.08459 0.14426,1.43276c0.04286,0.4825 0.0865,0.93254 -0.17481,0.90319c-4.01926,-0.45135 -9.94031,-1.30782 -9.94031,-1.30782l-15.23629,-1.89424z" fill="#7693e5" stroke="none" stroke-width="0" stroke-linecap="butt"/><path d="M262.77031,179.75712l-21.04727,-2.18756c0,0 0.01875,1.65758 0.02884,2.54959c0.01114,0.98512 0.03518,3.10959 0.03518,3.10959l-24.95386,-3.3728" fill="none" stroke="#010200" stroke-width="0.5" stroke-linecap="round"/><path d="M233.71636,189.43724c0,0 -1.01758,-1.61816 -1.53016,-3.49323c-0.40562,-1.48379 -0.33595,-3.13023 -0.30919,-4.25039c0.02715,-1.13607 0.16332,-2.86309 0.65353,-4.2976c0.58894,-1.72341 1.54681,-3.07015 1.54681,-3.07015" fill="none" stroke="#010200" stroke-width="0.5" stroke-linecap="round"/><path d="M249.0751,174.04979l1.91476,-0.02166l0.00481,0.42549l-1.91476,0.02166z" fill="none" stroke="#010200" stroke-width="0.5" stroke-linecap="butt"/><path d="M249.15236,182.27242l1.87141,-0.02117l0.00508,0.44914l-1.87141,0.02117z" fill="none" stroke="#010200" stroke-width="0.5" stroke-linecap="butt"/><path d="M242.14506,178.09498l21.40789,1.65518l-24.31997,16.53118l-22.5333,-16.06202c0,0 14.71162,1.646 18.6605,2.27615c1.5431,0.24624 6.23306,1.23169 6.31423,0.36505c0.28509,-3.04344 0.47064,-4.76555 0.47064,-4.76555z" fill="#c3ccee" stroke="none" stroke-width="0" stroke-linecap="butt"/><path d="M233.80342,189.34234c0,0 -1.01758,-1.61816 -1.53016,-3.49323c-0.40562,-1.48379 -0.33595,-3.13023 -0.30919,-4.25039c0.02715,-1.13607 0.16332,-2.86309 0.65353,-4.2976c0.58894,-1.72341 1.54681,-3.07015 1.54681,-3.07015" fill="none" stroke="#010200" stroke-width="0.5" stroke-linecap="round"/><path d="M249.42537,182.20607l1.91476,-0.02527l0.00481,0.4964l-1.91476,0.02527z" fill="none" stroke="#010200" stroke-width="0.5" stroke-linecap="butt"/><path d="M234.13483,189.4832c0,0 -1.01758,-1.61816 -1.53016,-3.49323c-0.40562,-1.48379 -0.33595,-3.13023 -0.30919,-4.25039c0.02715,-1.13607 0.16332,-2.86309 0.65353,-4.2976c0.58894,-1.72341 1.54681,-3.07015 1.54681,-3.07015" fill="none" stroke="#010200" stroke-width="0.5" stroke-linecap="round"/><path d="M262.96754,179.95436l-21.04727,-2.18756c0,0 0.01875,1.65758 0.02884,2.54959c0.01114,0.98512 0.03518,3.10959 0.03518,3.10959l-24.95386,-3.3728" fill="none" stroke="#010200" stroke-width="0.5" stroke-linecap="round"/></g></g></svg>