<svg version="1.1" xmlns="http://www.w3.org/2000/svg" xmlns:xlink="http://www.w3.org/1999/xlink" width="51.94936" height="48.18987" viewBox="0,0,51.94936,48.18987"><defs><radialGradient cx="238.24495" cy="178.37196" r="25.97468" gradientUnits="userSpaceOnUse" id="color-1"><stop offset="0" stop-color="#0013cc"/><stop offset="1" stop-color="#0013cc" stop-opacity="0"/></radialGradient></defs><g transform="translate(-212.27027,-154.27703)"><g data-paper-data="{&quot;isPaintingLayer&quot;:true}" fill-rule="nonzero" stroke="none" stroke-linecap="butt" stroke-linejoin="miter" stroke-miterlimit="10" stroke-dasharray="" stroke-dashoffset="0" style="mix-blend-mode: normal"><path d="M264.21963,178.37196c0,13.30726 -11.62926,24.09494 -25.97468,24.09494c-14.34542,0 -25.97468,-10.78767 -25.97468,-24.09494c0,-13.30726 11.62926,-24.09493 25.97468,-24.09493c14.34542,0 25.97468,10.78767 25.97468,24.09493z" fill="url(#color-1)" stroke-width="0"/><path d="M251.81127,191.63693c0,0.96395 -0.30671,4.23553 -4.28908,5.91026c-0.93474,0.39921 -1.96197,0.60368 -3.0525,0.60368c-1.11,0 -2.28816,-0.20447 -3.59289,-0.62803c-1.01263,-0.32618 -2.47803,-0.73513 -4.36697,-1.22197c-2.31737,1.62118 -4.08947,2.31737 -5.85184,2.31737c-1.84513,0 -3.59776,-0.74 -4.94145,-2.07882c-1.00776,-1.00289 -1.5725,-2.36605 -1.5725,-3.78763v-0.94447c0,-0.59395 0.10224,-1.38263 0.48684,-2.23461c0.19961,-1.73803 0.61829,-3.45171 1.24632,-5.10697c0.17039,-0.47711 0.49171,-1.27553 1.3875,-3.18882c0.90066,-1.88408 2.25408,-3.85092 4.12842,-5.97355c-0.33105,0.04382 -0.63776,0.06329 -0.91039,0.06329c-3.25697,0 -6.55289,-2.38553 -6.55289,-6.94237c0,-1.54329 0.54526,-3.10118 1.9425,-5.55974c0.41382,-0.72539 0.98829,-1.34368 1.68447,-1.80618c0.0925,-0.06329 0.20934,-0.14118 0.34079,-0.23368c0.35539,-0.29697 0.76921,-0.58421 1.28039,-0.90066c0.33592,-0.20447 0.69132,-0.37487 1.06132,-0.50145c0.87145,-0.30184 1.77697,-0.59882 2.70197,-0.88605c1.32908,-0.41382 2.54132,-0.63776 3.7,-0.68645h0.05842c2.62408,-0.07789 5.11671,0.39921 7.43895,1.42645c2.17132,0.92987 3.91421,2.53645 5.18487,4.78079c1.19276,2.11289 1.73803,4.24039 1.62605,6.32895c-0.00487,0.05842 -0.00974,0.11684 -0.01461,0.18013c-0.17039,1.93276 -0.82763,3.7146 -1.96197,5.29684c-0.05355,0.07789 -0.11684,0.15579 -0.17526,0.23368c-0.35539,0.44789 -0.97855,1.14895 -2.62408,2.63382c-0.96395,1.00776 -2.3125,2.37092 -4.10408,4.14789c-0.17526,0.25316 -0.36513,0.50632 -0.57447,0.75461c0.66211,0.17526 1.33882,0.39921 2.04474,0.65724l0.77895,0.28237c0.13145,-0.00487 0.25803,-0.00487 0.38461,-0.00487c2.77013,0 4.44974,1.20737 5.37474,2.22487c0.02434,0.02434 0.04382,0.04868 0.06816,0.07303c1.01263,1.15868 1.5725,2.67763 1.66013,4.51303c0.00487,0.08276 0.00487,0.17039 0.00487,0.25803z" fill="#0013cc" stroke-width="1"/><path d="M246.45796,191.63547c0,0.37049 -0.34274,0.69911 -1.02772,0.98439c-0.65724,0.28529 -1.62751,0.22103 -2.9118,-0.19279c-1.28478,-0.4143 -3.16885,-0.93571 -5.65224,-1.56325c-1.17086,-0.14313 -2.18397,0.11392 -3.04033,0.77116c-1.48487,1.08468 -2.5418,1.62703 -3.16934,1.62703c-0.42793,0 -0.81351,-0.17137 -1.15625,-0.51313v-0.94107c0,-0.02872 0.03554,-0.08568 0.10759,-0.17088c0.07108,-0.08617 0.11343,-0.17867 0.12853,-0.2775c0.01363,-0.10029 0.06426,-0.26436 0.14995,-0.49171c0.11343,-1.56812 0.45666,-3.09291 1.02772,-4.57534c0.14264,-0.42696 0.54186,-1.33882 1.19909,-2.73605c0.85636,-1.79547 2.41182,-3.86212 4.66784,-6.19993c0.65626,-0.62657 1.5983,-1.56763 2.82612,-2.82222c0.54186,-0.51264 1.08517,-1.01166 1.62751,-1.49607c0.77067,-0.74049 1.16988,-1.3247 1.19909,-1.75312c0.05647,-0.08568 0.12853,-0.22833 0.21372,-0.42745c0.02824,-0.31353 0.01412,-0.74049 -0.04284,-1.28283c-0.02872,-0.05696 -0.06426,-0.18549 -0.10711,-0.38461c-0.04284,-0.19961 -0.09299,-0.51313 -0.14995,-0.94107c-0.85684,-1.71028 -2.49847,-2.56566 -4.92441,-2.56566c-1.62751,0 -2.86945,0.41041 -3.7258,1.22976c-0.08568,0.02824 -0.19961,0.07108 -0.34225,0.12707c-0.48587,0.31109 -0.78528,0.60807 -0.89968,0.89043c-0.5993,1.38555 -1.25654,2.07784 -1.96976,2.07784c-0.79988,0 -1.19909,-0.52774 -1.19909,-1.58418c0,-0.48538 0.41382,-1.45614 1.24193,-2.9118c0.17137,-0.11392 0.39921,-0.27117 0.68499,-0.47126c0.14264,-0.14264 0.39921,-0.32813 0.77116,-0.55695c0.82714,-0.28529 1.6762,-0.56328 2.54764,-0.83493c0.87047,-0.27117 1.64893,-0.42112 2.33392,-0.44984c1.82663,-0.05696 3.53983,0.27166 5.13862,0.98439c1.08468,0.45714 1.96976,1.29208 2.65524,2.50529c0.68499,1.2137 0.999,2.34804 0.94204,3.404c-0.08568,0.97076 -0.4143,1.85584 -0.98488,2.65524c-0.34225,0.42793 -1.07008,1.14213 -2.18349,2.14064c-0.99997,1.05693 -2.54132,2.61239 -4.625,4.66784c-0.17137,0.40018 -0.55695,0.84224 -1.15625,1.32762c-0.02872,0.11441 -0.10029,0.28578 -0.21372,0.51411c-0.37146,0.65724 -0.8992,1.38507 -1.58467,2.18397c0.02824,0.25657 -0.08568,0.55695 -0.34225,0.8992c-0.3145,0.48587 -0.47126,0.75704 -0.47126,0.814c-0.22882,0.54234 -0.52871,1.34222 -0.89968,2.39818c-0.08568,0.34274 -0.22882,0.87096 -0.42793,1.58467c0.65626,-0.19961 1.52674,-0.44254 2.61191,-0.72832c0.65675,-0.11343 1.29889,-0.17137 1.92692,-0.17137c1.28526,0 2.76916,0.3145 4.45363,0.94253c0.39921,0.14313 0.999,0.35686 1.79839,0.64214c0.39921,-0.02824 0.79891,-0.04284 1.19909,-0.04284c0.65626,0 1.12704,0.15676 1.41282,0.47126c0.19863,0.2293 0.31353,0.64361 0.34225,1.24339z" fill="#000000" stroke-width="1"/></g></g></svg>