<svg version="1.1" xmlns="http://www.w3.org/2000/svg" xmlns:xlink="http://www.w3.org/1999/xlink" width="105.33333" height="105.33332" viewBox="0,0,105.33333,105.33332"><defs><radialGradient cx="240.00002" cy="180.00002" r="52.66666" gradientUnits="userSpaceOnUse" id="color-1"><stop offset="0" stop-color="#ffffff"/><stop offset="1" stop-color="#ffffff" stop-opacity="0"/></radialGradient></defs><g transform="translate(-187.33335,-127.33335)"><g data-paper-data="{&quot;isPaintingLayer&quot;:true}" fill-rule="nonzero" stroke="none" stroke-linecap="butt" stroke-linejoin="miter" stroke-miterlimit="10" stroke-dasharray="" stroke-dashoffset="0" style="mix-blend-mode: normal"><path d="M292.66669,180.00002c0,29.087 -23.57967,52.66666 -52.66666,52.66666c-29.087,0 -52.66667,-23.57967 -52.66667,-52.66666c0,-29.087 23.57967,-52.66666 52.66667,-52.66666c29.087,0 52.66666,23.57967 52.66666,52.66666z" fill="url(#color-1)" stroke-width="0"/><path d="M270.00601,180c0,16.57187 -13.43414,30.00601 -30.00601,30.00601c-16.57187,0 -30.00601,-13.43414 -30.00601,-30.00601c0,-16.57187 13.43414,-30.00601 30.00601,-30.00601c16.57187,0 30.00601,13.43414 30.00601,30.00601z" fill="#ffffff" stroke-width="0"/><path d="M223.62848,143.15952c1.75,0 1.75,1.75 1.75,1.75l-0.08981,1.5534c-0.55337,1.65273 -1.62663,3.13736 -1.95701,4.84867c-0.18956,0.98187 0.20199,2.02061 0,3c-0.65817,3.19128 -2.88148,6.24549 -4.0864,9.26763c-0.61915,1.55295 -1.1354,4.2548 -2.37935,5.56774c-0.51692,0.5456 -1.47968,0.48526 -2.01399,1.01384c-0.52701,0.52135 -0.42869,1.52319 -1.01244,1.98011c-1.3832,1.08267 -2.90955,2.60401 -4.66017,2.45999c-1.23541,-0.10163 -1.59053,-1.92462 -2.16762,-3.02168c-1.22241,-2.32381 -2.21192,-5.62182 -3.04341,-8.11629c-0.09726,-0.29178 -0.20874,-0.60289 -0.3119,-0.92187c-0.12418,0.91635 -0.13487,1.87291 -0.32471,2.77053c-0.04203,0.19876 -1.94576,4.01278 -2.13794,4.38056c-0.43085,0.82452 -0.57728,1.90511 -1.32781,2.45481c-4.78879,3.5074 -3.74696,0.9282 -5.77468,-2.40114c-0.6024,-0.98909 -1.74464,-1.65946 -2.11411,-2.75704c-0.3911,-1.16179 0.17148,-2.47185 -0.05184,-3.67719c-0.13578,-0.73289 -0.8582,-1.26826 -1,-2c-0.73245,-3.77981 -0.04681,-8.54392 -0.04681,-12.40206c0,0 0,-1.75 1.75,-1.75c1.75,0 1.75,1.75 1.75,1.75c0,3.51943 -0.75841,8.1654 -0.04682,11.59793c0.1513,0.72984 0.86928,1.26619 1,2c0.19427,1.09057 -0.39852,2.27072 -0.05183,3.3228c0.30571,0.92774 1.48334,1.35296 1.88589,2.24297c0.30543,0.6753 0.02903,1.48561 0.13246,2.21951c0.02919,0.20714 0.02319,-0.42341 0.09287,-0.62065c0.18708,-0.52961 0.43257,-1.03718 0.67219,-1.54519c0.31797,-0.67413 0.65902,-1.33721 1,-2c1.23243,-2.39558 0.7959,-4.48102 2,-7l0.98305,-1.96609c0.28061,-0.59193 0.8836,-1.00129 1.5822,-1.00129c0.6986,0 1.30159,0.40936 1.5822,1.00129l0.98305,1.96609l-0.36698,0.18349c1.40451,2.46731 2.27191,5.06291 3.41852,7.92943c0.39148,0.9787 0.78413,1.96825 1,3c0.06776,0.32385 -0.46977,1.11312 -0.16762,0.97832c0.99614,-0.44441 1.77323,-3.01033 2.32739,-3.5599c0.5248,-0.52047 1.44417,-0.48345 1.986,-0.98616c1.1532,-1.06993 1.03485,-2.97231 1.62065,-4.43226c1.131,-2.81872 3.34103,-5.76655 3.9136,-8.73237c0.18956,-0.98187 -0.20199,-2.02061 0,-3c0.37312,-1.80915 1.46139,-3.39806 2.04299,-5.15133l-0.0898,-0.4466c0,0 0,-1.75 1.75,-1.75z" fill="#000000" stroke-width="0.5"/><path d="M257.37847,149.90952c0,1.75 -1.75,1.75 -1.75,1.75l-3.40207,-0.04681c-3.23895,-1.61947 -7.00678,-0.95319 -10.59793,-0.95319c0,0 -0.96873,0 -1.46469,-0.72074c-0.32464,2.53362 -0.95613,4.98482 -1.46848,7.4699c0.456,-0.24916 0.93317,-0.24916 0.93317,-0.24916c3,0 6,0 9,0h1c0,0 1.75,0 1.75,1.75c0,1.75 -1.75,1.75 -1.75,1.75c-3,0 -7,0 -10,0c0,0 -0.87257,0 -1.38542,-0.61614c-0.17595,1.93687 0.14252,3.91373 0.13542,5.86614c-0.00555,1.52948 -0.99543,3.72603 0.27324,4.58033c0.55414,0.37314 1.31017,-0.28608 1.97676,-0.33033c3.1248,-0.2074 6.36951,0 9.5,0h2.5c0,0 1.75,0 1.75,1.75c0,1.75 -1.75,1.75 -1.75,1.75h-2.5c-3.14838,0 -6.3545,0.14794 -9.5,0c-1.34411,-0.06322 -2.96245,0.49752 -4.02325,-0.33033c-2.08554,-1.62756 -1.71946,-5.2289 -1.72675,-7.41967c-0.00144,-0.43342 -0.00804,-7.08784 0.03158,-7.33094c0.63029,-3.86821 2.0019,-7.64013 1.96842,-11.66906c0,0 0,-1.75 1.75,-1.75c1.75,0 1.75,1.75 1.75,1.75c-0.00171,0.24796 -0.00768,0.49478 -0.01754,0.74054c0.518,-0.49053 1.26754,-0.49054 1.26754,-0.49054c3.82369,0 7.93849,-0.68497 11.40207,1.04682l2.59794,-0.04682c0,0 1.75,0 1.75,1.75z" fill="#000000" stroke-width="0.5"/><path d="M289.19372,158.12688c0.78263,1.56525 -0.78262,2.34787 -0.78262,2.34787l-1.54519,0.67219c-1.46934,3.37764 -3.67504,4.95381 -5.81776,7.78581c-0.77544,1.02488 -1.48394,2.46133 -2.13745,3.9396l0.26439,0.0661l-0.83999,3.35998c-0.17685,0.77931 -0.8738,1.36108 -1.70662,1.36108c-0.6986,0 -1.3016,-0.40936 -1.58221,-1.00128l-0.98305,-1.96609l0.00946,-0.00473l-0.02479,-0.02672c-0.85284,-1.94637 -1.02451,-4.13142 -1.33621,-6.23345c-0.34295,-2.31279 -1.49315,-4.45936 -1.81629,-6.775c-0.30189,-2.16335 -0.17849,-4.67704 -0.08524,-7.05089c-0.18917,0.54768 -0.35419,1.10188 -0.46942,1.66969c-0.1935,0.95351 0.18162,1.9602 0.01515,2.9188c-0.32626,1.8788 -1.45961,3.52577 -2.08611,5.32684c-0.64841,1.86408 -0.47474,3.92867 -0.95047,5.8441c-0.37322,1.50268 -0.96871,3.00066 -0.94082,4.54875l-2.75,1.75c0,0 -1.75,0 -1.75,-1.75c0,-1.00698 0.57943,-1.43453 1.07147,-1.61606c0.2371,-3.28162 1.02399,-6.99526 2.03723,-9.9911c0.53931,-1.59456 1.6497,-3.01073 1.91389,-4.67316c0.1612,-1.01435 -0.19363,-2.07556 0.01515,-3.0812c0.43289,-2.08515 1.50195,-3.99591 2.0145,-6.06292c0,0 0.42444,-1.69774 2.12219,-1.27331c1.37993,0.34498 1.35786,1.53116 1.30123,1.96319c0.0863,-0.01009 0.17764,-0.01544 0.27434,-0.01544c1.75,0 1.75,1.75 1.75,1.75c0,2.87438 -0.41761,6.40814 -0.01692,9.25727c0.32421,2.3053 1.46747,4.44245 1.81193,6.74481c0.11599,0.7753 0.18402,1.57116 0.28813,2.35685c0.93127,-2.80917 3.76468,-4.752 5.74718,-7.38218c0.95217,-1.26324 1.42963,-2.82279 2.18223,-4.21419l2.45482,-1.32782c0,0 1.56525,-0.78262 2.34787,0.78262z" fill="#000000" stroke-width="0.5"/><path d="M214.97834,211.38156c0.64868,1.62534 -0.97666,2.27401 -0.97666,2.27401l-1.47603,0.49239c-2.96139,0.1719 -5.83128,0.41919 -8.79022,0.17586c-2.21664,-0.18645 -4.47987,-0.26875 -6.6846,-0.56226c-1.0464,-0.1393 -2.31652,0.15606 -3.12308,-0.52497c-1.0006,-0.84487 -1.17495,-2.34236 -1.69579,-3.5439c-1.01004,-2.33011 -2.00281,-6.07724 -0.70296,-8.61995c1.13598,-2.22214 3.48378,-3.14327 5.25007,-4.6523c1.02417,-0.875 2.06305,-2.73551 3.14125,-3.47371c2.37123,-1.62348 6.02487,-2.51673 8.71495,-3.52856c1.14568,-0.43093 2.23369,-1.22358 3.45766,-1.23653c1.70702,-0.01806 3.24841,1.1862 4.95106,1.30962c0,0 1.74384,0.14668 1.59716,1.89053c-0.14668,1.74384 -1.89052,1.59716 -1.89052,1.59716c-1.61926,-0.15085 -3.07707,-1.26868 -4.70308,-1.29759c-1.77704,-0.03159 -3.2505,1.44071 -4.90121,2.09951c-1.73312,0.69169 -3.6718,0.98462 -5.21651,2.03151c-1.1758,0.79687 -1.7313,2.27818 -2.80617,3.20672c-0.09119,0.07878 -3.99893,2.70255 -4.41241,3.51081c-0.89523,1.74998 0.23858,4.32945 0.77139,5.86543c0.22901,0.66018 0.03638,1.53233 0.52824,2.02868c0.31481,0.31768 0.88609,-0.15482 1.33331,-0.15014c2.20877,0.02312 4.48281,0.37707 6.6846,0.56226c2.78873,0.24042 5.50148,-0.0202 8.29404,-0.18229l0.3815,-0.24895c0,0 1.62534,-0.64868 2.27401,0.97666z" fill="#000000" stroke-width="0.5"/><path d="M232.38114,191.73473c0.20515,1.36685 -1.19927,1.83499 -1.19927,1.83499c-2.90217,0.96272 -8.25503,3.10439 -8.85021,6.74187c-0.16148,0.98687 0.19611,2.01942 0,3c-0.14617,0.73088 -0.8487,1.27016 -1,2c-0.35157,1.6959 -0.08377,3.46594 0,5.19586c0.01513,0.31257 -0.08792,0.84238 0.21684,0.91343c0.84181,0.19627 1.71638,-0.22424 2.57997,-0.26136c2.82899,-0.12161 7.94081,0.90205 10.26256,-1.48743c1.5585,-1.60396 1.51701,-4.3056 1.48744,-6.26257c0,-4.3654 0.9554,-7.85168 -2.27325,-11.08032zM230.85704,190.16714c-0.0398,-0.29637 0.00763,-0.64312 0.20619,-1.04025c0.78263,-1.56525 2.34787,-0.78262 2.34787,-0.78262l2.24062,1.14558c1.62777,1.62777 3.15398,2.6362 3.67994,5.01761c0.58548,2.65085 0.04682,6.16602 0.04682,8.90207c-0.0156,1.30069 0.19423,2.62381 -0.04682,3.90207c-1.0971,5.8178 -6.59434,7.33091 -11.70318,7.34793c-1.03866,0.00346 -7.31628,0.06449 -7.92003,-0.26136c-2.28431,-1.23287 -1.82997,-4.60514 -1.82997,-6.48864c0,-1.83418 0.68709,-3.6035 1.04681,-5.40207c0.19611,-0.98058 -0.2226,-2.02509 0,-3c1.13661,-4.9778 6.86401,-7.82315 11.14979,-9.25813c0,0 0.34989,-0.11663 0.78196,-0.08218z" fill="#000000" stroke-width="0.5"/><path d="M245.62848,212.15952c2.67557,0 7.62765,0.77463 9.76256,-1.48743c4.05329,-4.2947 3.11944,-11.08545 0.67219,-15.97994c-0.33333,-0.66666 -0.71648,-1.31067 -1,-2c-0.17012,-0.41363 0.06209,-1.13197 -0.35478,-1.29399c-0.73707,-0.28646 -1.57792,0.35382 -2.36029,0.23876c-0.53027,-0.07798 -1.04121,-0.23832 -1.54636,-0.42332c-0.00895,0.00591 -0.01785,0.0119 -0.02672,0.01797c-1.29771,0.88801 -0.87053,3.04077 -1.57455,4.44682c-0.4849,0.96842 -1.41956,1.67825 -1.84586,2.67386c-0.98355,2.29701 0.42941,6.49621 -0.023,8.95934c-0.31501,1.71502 -1.39674,3.1994 -1.96539,4.84793zM247.96828,188.35612c0.5534,-1.66019 2.21359,-1.1068 2.21359,-1.1068c0.28385,0.0971 0.56422,0.20756 0.84436,0.31887c0.35635,-0.09431 0.71034,-0.1928 1.04885,-0.31887c0,0 1.55603,-0.51868 2.15739,0.95469c0.81455,-0.06214 1.63167,-0.16446 2.31604,0.21687c0.5004,0.27882 2.25486,3.92529 2.64522,4.70601c1.92904,3.85809 2.2454,6.43106 2.18476,10.78262c-0.01895,1.36002 0.32502,2.78678 -0.09865,4.07926c-0.37353,1.13953 -1.51542,1.86391 -2.17727,2.86391c-0.47949,0.72448 -0.61169,1.69078 -1.23665,2.29426c-3.16171,3.05303 -8.29639,2.51256 -12.23743,2.51256h-0.41186c-0.19605,0.47492 -0.62955,1 -1.58814,1c-1.75,0 -1.75,-1.75 -1.75,-1.75l0.02259,-3.28032c0.57163,-1.74448 1.69997,-3.31486 2.02421,-5.12175c0.50992,-2.84156 -0.94967,-6.46317 0.0941,-9.21631c0.44332,-1.16934 1.48272,-2.02949 2.03704,-3.15049c0.57554,-1.16392 0.91607,-3.50012 1.82142,-4.87276c-0.04471,-0.25771 -0.02686,-0.55989 0.09043,-0.91178z" fill="#000000" stroke-width="0.5"/><path d="M287.37847,193.90952c0,1.75 -1.75,1.75 -1.75,1.75l-1.78263,-0.18475c-2.35977,-1.25615 -4.56051,-0.81525 -7.21737,-0.81525c0,0 -0.44224,0 -0.88209,-0.22231c-1.02648,1.93366 -2.04777,3.98668 -2.41473,5.87438c-0.61643,3.17104 -0.24164,6.77398 -1.00905,9.9819c-0.1529,0.63914 -0.81278,1.0856 -0.94777,1.72876c-0.10226,0.48721 -0.18325,1.27756 0.27688,1.4676c0.76983,0.31795 1.64569,-0.27517 2.47676,-0.33033c1.59639,-0.10596 3.28391,0.63866 4.81757,0.30012c-0.04312,-0.16085 -0.06757,-0.34326 -0.06757,-0.55012c0,-1.75 1.75,-1.75 1.75,-1.75l2.4,2.8c-0.70579,0.83841 -1.10762,2.08925 -2.11738,2.51524c-1.09201,0.46069 -10.39598,0.56277 -11.30586,-0.14557c-1.27539,-0.99287 -1.57146,-2.92323 -1.72312,-4.5324c-0.08312,-0.88191 0.8657,-1.57131 1.06653,-2.43406c0.73584,-3.16117 0.33648,-6.72627 0.97665,-9.85528c0.63702,-3.11359 2.70684,-6.51837 4.13794,-9.38056c0,0 0.78262,-1.56525 2.34787,-0.78262c0.97852,0.48926 1.03945,1.28439 0.94764,1.81174c2.94669,-0.02544 5.26335,-0.14493 8.05236,1.18826l0.21738,-0.18475c0,0 1.75,0 1.75,1.75z" fill="#000000" stroke-width="0.5"/><path d="M280.45312,204.30967c0,1.75 -1.75,1.75 -1.75,1.75h-3c0,0 -1.75,0 -1.75,-1.75c0,-1.75 1.75,-1.75 1.75,-1.75h3c0,0 1.75,0 1.75,1.75z" fill="#000000" stroke-width="0.5"/></g></g></svg>