<svg version="1.1" xmlns="http://www.w3.org/2000/svg" xmlns:xlink="http://www.w3.org/1999/xlink" width="39.38587" height="14.45834" viewBox="0,0,39.38587,14.45834"><defs><radialGradient cx="240" cy="180" r="19.693" gradientUnits="userSpaceOnUse" id="color-1"><stop offset="0" stop-color="#00ffe4" stop-opacity="0"/><stop offset="1" stop-color="#00ffe4" stop-opacity="0"/></radialGradient><radialGradient cx="237.47664" cy="178.37855" r="3.91213" gradientUnits="userSpaceOnUse" id="color-2"><stop offset="0" stop-color="#c3ccee"/><stop offset="1" stop-color="#7493ed"/></radialGradient><radialGradient cx="234.41626" cy="182.37036" r="3.91213" gradientUnits="userSpaceOnUse" id="color-3"><stop offset="0" stop-color="#c3ccee"/><stop offset="1" stop-color="#c3eedc"/></radialGradient><radialGradient cx="248.3876" cy="179.17691" r="3.91213" gradientUnits="userSpaceOnUse" id="color-4"><stop offset="0" stop-color="#c3ccee"/><stop offset="1" stop-color="#7493ed"/></radialGradient><radialGradient cx="244.26272" cy="181.70506" r="3.91213" gradientUnits="userSpaceOnUse" id="color-5"><stop offset="0" stop-color="#c3ccee"/><stop offset="1" stop-color="#c3eedc"/></radialGradient></defs><g transform="translate(-220.30701,-172.77083)"><g data-paper-data="{&quot;isPaintingLayer&quot;:true}" fill-rule="nonzero" stroke-linecap="butt" stroke-linejoin="miter" stroke-miterlimit="10" stroke-dasharray="" stroke-dashoffset="0" style="mix-blend-mode: normal"><path d="M225.7,172.77083c7.5592,0 20.17623,0 27.625,0c0.73032,0 6.34034,3.33897 6.36776,6.80776c0.02964,3.74944 -5.26046,7.65058 -5.99276,7.65058c-7.51533,0 -20.73883,0 -28.375,0c-0.48038,0 -5.01141,-3.52499 -5.01798,-7.09393c-0.00673,-3.65911 4.77498,-7.36441 5.39298,-7.36441z" fill="url(#color-1)" stroke="#000000" stroke-width="0"/><path d="M230.61135,177.46193c0,-0.4694 0.48896,-1.44529 0.95111,-1.44529c0.92206,0 4.26144,0 5.92203,0c0.57684,0 0.95111,0.85836 0.95111,1.30428c0,0.4694 -0.38978,1.45017 -0.98685,1.45736c-1.67231,0.02015 -4.97079,0.05843 -5.88629,0.05843c-0.46216,0 -0.95111,-0.92887 -0.95111,-1.37479z" fill="#000000" stroke="url(#color-2)" stroke-width="2"/><path d="M230.81287,183.21193c0,-0.4694 0.48896,-1.44529 0.95111,-1.44529c0.92206,0 4.26144,0 5.92203,0c0.57684,0 0.95111,0.85836 0.95111,1.30428c0,0.4694 -0.38978,1.45017 -0.98685,1.45736c-1.6723,0.02015 -4.97079,0.05843 -5.88629,0.05843c-0.46216,0 -0.95111,-0.92887 -0.95111,-1.37479z" fill="#ffffff" stroke="url(#color-3)" stroke-width="2"/><path d="M241.47108,177.46193c0,-0.4694 0.48895,-1.44529 0.95111,-1.44529c0.92206,0 4.26144,0 5.92204,0c0.57684,0 0.95111,0.85836 0.95111,1.30428c0,0.4694 -0.38978,1.45017 -0.98685,1.45736c-1.67231,0.02015 -4.9708,0.05843 -5.8863,0.05843c-0.46216,0 -0.95111,-0.92887 -0.95111,-1.37479z" fill="#000000" stroke="url(#color-4)" stroke-width="2"/><path d="M241.67261,183.21193c0,-0.4694 0.48895,-1.44529 0.95111,-1.44529c0.92206,0 4.26144,0 5.92204,0c0.57684,0 0.95111,0.85836 0.95111,1.30428c0,0.4694 -0.38978,1.45017 -0.98685,1.45736c-1.6723,0.02015 -4.97079,0.05843 -5.88629,0.05843c-0.46216,0 -0.95111,-0.92887 -0.95111,-1.37479z" fill="#ffffff" stroke="url(#color-5)" stroke-width="2"/></g></g></svg>