<svg version="1.1" xmlns="http://www.w3.org/2000/svg" xmlns:xlink="http://www.w3.org/1999/xlink" width="52.20338" height="48.42551" viewBox="0,0,52.20338,48.42551"><defs><radialGradient cx="235.21288" cy="175.55931" r="26.10169" gradientUnits="userSpaceOnUse" id="color-1"><stop offset="0" stop-color="#0013cc"/><stop offset="1" stop-color="#0013cc" stop-opacity="0"/></radialGradient></defs><g transform="translate(-209.11119,-151.34656)"><g data-paper-data="{&quot;isPaintingLayer&quot;:true}" fill-rule="nonzero" stroke="none" stroke-linecap="butt" stroke-linejoin="miter" stroke-miterlimit="10" stroke-dasharray="" stroke-dashoffset="0" style="mix-blend-mode: normal"><path d="M261.31457,175.55931c0,13.37233 -11.68612,24.21276 -26.10169,24.21276c-14.41557,0 -26.10169,-10.84042 -26.10169,-24.21276c0,-13.37233 11.68612,-24.21275 26.10169,-24.21275c14.41557,0 26.10169,10.84042 26.10169,24.21275z" fill="url(#color-1)" stroke-width="0"/><path d="M246.47133,188.87105c-0.10763,1.04204 -0.51858,2.02538 -1.17903,2.83749c-0.96866,1.1937 -2.09876,2.04495 -3.35607,2.52928c-1.15457,0.44519 -2.44122,0.59685 -4.0263,0.47455c-0.1859,-0.01468 -0.32778,-0.01957 -0.43052,-0.02446c-0.01957,0.00489 -0.03914,0.00978 -0.0636,0.01468c-0.85125,0.22504 -1.56062,0.32778 -2.23575,0.32778c-0.60664,0 -1.14478,-0.10274 -1.60954,-0.23972c-0.67513,0.04403 -1.21816,0.0636 -1.65846,0.0636h-2.05963c-0.93442,-0.03914 -3.72298,-0.14677 -5.43526,-2.5146c-0.22993,-0.30332 -0.65556,-0.90017 -0.98334,-1.72206c-0.14187,-0.28864 -0.26907,-0.58707 -0.37181,-0.90506c-0.29353,-0.8806 -0.35713,-1.81991 -0.17612,-2.72986c0.67513,-3.4637 3.29736,-5.12705 5.88046,-5.64563c-0.02935,-2.54396 -0.11252,-5.65052 -0.2544,-9.30012c-0.00489,-0.13209 -0.00489,-0.26907 0,-0.40605c-0.93931,-0.43541 -1.7612,-1.08607 -2.40208,-1.92264c-0.87082,-1.11054 -1.34536,-2.48525 -1.34536,-3.8991c0,-2.47057 1.35515,-4.58891 4.03119,-6.30119c0.02446,-0.01468 0.04403,-0.02935 0.06849,-0.03914c0.17612,-0.11252 0.30332,-0.20058 0.39627,-0.26418c0.31799,-0.51858 0.72405,-0.98334 1.20349,-1.36982c1.56062,-1.26219 3.38542,-1.92754 5.27382,-1.92754c3.41477,0 6.15442,2.25532 6.82955,5.61628c0.18101,0.91485 0.12231,1.85905 -0.16634,2.73965c-0.05381,0.63599 -0.1272,1.81991 -0.20547,3.98716c-0.00489,0.2495 -0.01957,0.57728 -0.04892,1.13989c-0.01957,0.28864 -0.02935,0.48922 -0.03425,0.60174v4.38833c0.00489,0.14677 0.02446,0.42073 0.04892,0.817c0.07338,1.06161 0.07828,1.1937 0.07828,1.40896v4.8433c1.36982,0.59685 2.55863,1.64379 3.43923,3.05764c1.0714,1.70249 0.89039,3.42945 0.79254,4.36387z" fill="#0013cc" stroke-width="1"/><path d="M241.11924,188.31284c-0.37328,0.45889 -0.74606,0.76025 -1.11885,0.90408c-0.37328,0.14334 -0.93246,0.18639 -1.67852,0.12915c-0.83217,-0.05773 -1.37667,-0.05773 -1.63547,0c-0.02886,0 -0.23629,0.0499 -0.62376,0.15068c-0.38698,0.10029 -0.68198,0.15117 -0.88207,0.15117c-0.05773,0 -0.16536,-0.05088 -0.32289,-0.15117c-0.15802,-0.10078 -0.27935,-0.15068 -0.36545,-0.15068c-0.14432,0 -0.52396,0.02153 -1.14038,0.06458c-0.6174,0.04305 -1.09733,0.06458 -1.44174,0.06458c-0.60223,0 -1.21963,0 -1.85024,0c-0.74606,-0.02886 -1.17658,-0.12915 -1.29106,-0.30087c-0.25782,-0.34441 -0.38746,-0.60223 -0.38746,-0.77444c-0.0861,-0.08659 -0.15753,-0.21526 -0.21477,-0.38746c0.22945,-1.17609 1.3483,-1.64917 3.35656,-1.41972c1.46278,0.14383 2.32381,0.12915 2.58163,-0.04354c0.11399,-3.06889 0.04305,-7.97531 -0.21477,-14.71679c0.11399,-1.26219 0.22896,-3.32769 0.34392,-6.19698c-0.20107,-0.02837 -0.48824,0.10127 -0.86054,0.38746c-0.43052,0.37328 -0.7035,0.58853 -0.81798,0.64528c-0.37328,0.14383 -0.74606,0.21526 -1.11885,0.21526c-0.48775,0 -0.84587,-0.15753 -1.07531,-0.47357c-0.14383,-0.1727 -0.21526,-0.37279 -0.21526,-0.60223c0,-0.51662 0.51662,-1.10418 1.54937,-1.76414c1.20496,-0.74558 1.92167,-1.42021 2.1516,-2.02294c0.60223,-0.48775 1.23284,-0.73188 1.89329,-0.73188c0.86054,0 1.37667,0.43052 1.54888,1.29106c-0.05773,0.11497 -0.11448,0.27348 -0.17221,0.47357c-0.11497,0.88941 -0.21477,2.58163 -0.30136,5.07813c0,0.14383 -0.01468,0.45889 -0.04305,0.94665c-0.02886,0.48824 -0.04305,0.76074 -0.04305,0.81798v4.60407c0,0.05773 0.02153,0.40899 0.06458,1.05427c0.04305,0.64528 0.06507,0.99704 0.06507,1.05427v9.81136c0.77444,0.14383 1.30476,0.15802 1.59193,0.04305c0.37279,-0.14285 0.70301,-0.21477 0.9897,-0.21477c0.65996,0 1.21914,0.37328 1.67852,1.11885c0.05675,0.08512 0.05675,0.40067 0,0.94567z" fill="#000000" stroke-width="1"/></g></g></svg>