<svg version="1.1" xmlns="http://www.w3.org/2000/svg" xmlns:xlink="http://www.w3.org/1999/xlink" width="56.16147" height="52.09716" viewBox="0,0,56.16147,52.09716"><defs><radialGradient cx="240" cy="180" r="28.08074" gradientUnits="userSpaceOnUse" id="color-1"><stop offset="0" stop-color="#0013cc"/><stop offset="1" stop-color="#0013cc" stop-opacity="0"/></radialGradient></defs><g transform="translate(-211.91926,-153.95142)"><g data-paper-data="{&quot;isPaintingLayer&quot;:true}" fill-rule="nonzero" stroke="none" stroke-linecap="butt" stroke-linejoin="miter" stroke-miterlimit="10" stroke-dasharray="" stroke-dashoffset="0" style="mix-blend-mode: normal"><path d="M268.08074,180c0,14.38623 -12.57217,26.04858 -28.08074,26.04858c-15.50856,0 -28.08073,-11.66235 -28.08073,-26.04858c0,-14.38623 12.57217,-26.04858 28.08073,-26.04858c15.50857,0 28.08074,11.66235 28.08074,26.04858z" fill="url(#color-1)" stroke-width="0"/><path d="M256.32208,166.58946c0,0.52632 -0.05263,1.05789 -0.15789,1.57895c-0.03158,0.15789 -0.06842,0.31053 -0.11053,0.46316c-0.6,2.12105 -1.96316,5.63158 -4.27895,11.05263c-0.27895,0.81579 -1.27895,3.73684 -2.99474,8.74737c-0.36842,1.26842 -0.9,3.05789 -1.58947,5.36842c-0.01579,0.05789 -0.03684,0.11579 -0.05789,0.17368c-0.00526,0.02632 -0.04211,0.14737 -0.06316,0.41579c-0.06842,1.06316 -0.21579,1.97895 -0.44211,2.79474c-0.41053,1.51579 -1.33684,2.85789 -2.62632,3.77895c-0.65263,0.47368 -1.39474,0.8 -2.17368,0.96316c-0.13684,0.03684 -0.35263,0.09474 -0.65789,0.17895c-0.64211,0.18947 -1.31053,0.28421 -1.98947,0.28421c-0.8,0 -1.61053,-0.13158 -2.41053,-0.39474c-1.01053,-0.33684 -1.90526,-0.94211 -2.58947,-1.74211c-0.65263,-0.55789 -1.17368,-1.25789 -1.52632,-2.04737c-0.65263,-1.45789 -0.77368,-3.07895 -0.35789,-4.81579c0.22105,-0.99474 0.57895,-2.37368 1.1,-4.21053c0.02632,-0.09474 0.05789,-0.19474 0.08947,-0.28947c0.44737,-1.31053 1.10526,-3.31579 1.95789,-5.97368c0.08947,-0.26316 0.18947,-0.51579 0.31053,-0.75789c0.18421,-0.71053 0.37895,-1.40526 0.58947,-2.08947c-1.33684,0.98421 -2.97895,1.52105 -4.79474,1.52105c-0.97368,0 -1.94737,-0.15263 -2.89474,-0.46316c-2.58947,-0.83158 -4.37368,-2.86842 -4.76842,-5.46316c-0.00526,-0.02105 -0.01053,-0.04211 -0.01053,-0.06316c-0.15263,-1.06316 -0.14737,-2.47368 0.02105,-4.65263c-0.03158,-0.41579 -0.08421,-1.16316 -0.15789,-2.24211c0,-0.02632 -0.00526,-0.05263 -0.00526,-0.07895c-0.03158,-0.57368 -0.11579,-1.06316 -0.24737,-1.44737c-0.01053,-0.02105 -0.01579,-0.03684 -0.02105,-0.05263c-0.31053,-0.93684 -1.25789,-3.76842 0.59474,-6.35263c1.56842,-2.22105 4.02632,-3.49474 6.75263,-3.49474c2.26842,0 4.32632,0.92632 5.77368,2.53158c0.29474,0.01053 0.58947,0.03684 0.87895,0.08421c2.03684,0.31579 3.99474,0.99474 5.8421,2.02632c1.32105,-1.53684 3.3,-2.46316 5.60526,-2.46316c4.29474,0 7.41053,3 7.41053,7.13158z" fill="#0013cc" stroke-width="1"/><path d="M250.48471,167.05209c-0.52526,1.85158 -1.89789,5.37 -4.12053,10.55526c-0.06211,0.18526 -1.09579,3.21053 -3.1021,9.07368c-0.37,1.26579 -0.91053,3.08684 -1.62,5.46263c-0.18579,0.55632 -0.30105,1.17316 -0.34737,1.85263c-0.04632,0.67842 -0.13158,1.23368 -0.25421,1.66632c-0.06211,0.24684 -0.20105,0.44737 -0.41684,0.60263c-0.03105,0 -0.38579,0.09263 -1.06421,0.27737c-0.27789,0.09263 -0.60211,0.07632 -0.97263,-0.04632c-0.12368,-0.21684 -0.34,-0.43263 -0.64789,-0.64842c-0.12368,-0.27737 -0.12368,-0.66316 0,-1.15632c0.18632,-0.86368 0.52789,-2.17421 1.02579,-3.93421c0.46263,-1.35737 1.12632,-3.37895 1.99105,-6.06368c0.03053,0 0.09263,-0.07684 0.18526,-0.23158c0.55421,-2.28474 1.24789,-4.43 2.08,-6.43632c0.58421,-1.35789 1.35474,-3.42579 2.31053,-6.20368c-0.12368,0.03105 -0.30895,0.04632 -0.55579,0.04632c-1.35842,-0.15421 -2.33105,-0.36263 -2.91684,-0.62526c-0.58632,-0.26211 -1.46579,-0.70211 -2.63895,-1.32c-1.26579,-0.83316 -2.17579,-1.25 -2.73105,-1.25c-0.30895,0 -0.57895,0.17789 -0.81,0.53263c-0.23158,0.35526 -0.44,0.70263 -0.62526,1.04158c-0.03158,0.06211 -0.17,0.30895 -0.41684,0.74053c-0.18526,0.58684 -0.57158,1.71263 -1.15737,3.37947c-0.40158,0.95684 -1.11053,1.43579 -2.12947,1.43579c-0.37,0 -0.74053,-0.06158 -1.11105,-0.18579c-0.49368,-0.15368 -0.77158,-0.43158 -0.83316,-0.83316c-0.09263,-0.64789 -0.06211,-1.91316 0.09263,-3.79632c0,-0.03053 -0.06211,-0.92632 -0.18526,-2.68526c-0.06211,-1.11105 -0.24737,-2.11368 -0.55579,-3.00947c-0.21632,-0.64789 -0.27737,-1.03368 -0.18526,-1.15684c0.49368,-0.71053 1.17263,-1.06474 2.03684,-1.06474c0.80211,0 1.38895,0.34 1.75947,1.01895c0.21526,0.40105 0.29316,1.03421 0.23105,1.89737c-0.12368,0.95684 -0.10842,1.60526 0.04632,1.94421c1.48105,-1.69684 2.73105,-2.46842 3.75,-2.31421c1.38895,0.21579 2.73105,0.69368 4.02737,1.43526c0.71,0.40158 1.40421,0.81842 2.08316,1.25c0.83368,0.49368 1.51211,0.78684 2.03737,0.87947c0.37,0.06211 1.00211,-0.16895 1.89789,-0.69421c0.46263,-0.27737 0.70947,-0.88737 0.74053,-1.82895c0.03053,-0.94053 0.53947,-1.41211 1.52737,-1.41211c1.08,0 1.62053,0.44789 1.62053,1.34263c0.00105,0.15368 -0.01474,0.30789 -0.04526,0.46211z" fill="#000000" stroke-width="1"/></g></g></svg>