<svg version="1.1" xmlns="http://www.w3.org/2000/svg" xmlns:xlink="http://www.w3.org/1999/xlink" width="51.24734" height="47.53866" viewBox="0,0,51.24734,47.53866"><defs><radialGradient cx="240" cy="180" r="25.62367" gradientUnits="userSpaceOnUse" id="color-1"><stop offset="0" stop-color="#0013cc"/><stop offset="1" stop-color="#0013cc" stop-opacity="0"/></radialGradient></defs><g transform="translate(-214.37633,-156.23067)"><g data-paper-data="{&quot;isPaintingLayer&quot;:true}" fill-rule="nonzero" stroke="none" stroke-linecap="butt" stroke-linejoin="miter" stroke-miterlimit="10" stroke-dasharray="" stroke-dashoffset="0" style="mix-blend-mode: normal"><path d="M265.62367,180c0,13.12743 -11.47211,23.76933 -25.62367,23.76933c-14.15156,0 -25.62367,-10.64189 -25.62367,-23.76933c0,-13.12743 11.47211,-23.76933 25.62367,-23.76933c14.15157,0 25.62367,10.64189 25.62367,23.76933z" fill="url(#color-1)" stroke-width="0"/><path d="M252.46569,190.99801c-0.78763,2.21401 -2.52138,3.99579 -5.30691,5.46539c-0.02401,0.00961 -0.04803,0.02401 -0.06724,0.03362c-2.12757,1.08539 -4.35599,1.63289 -6.62283,1.63289c-3.13612,0 -6.12816,-1.05658 -8.88487,-3.13612c-0.01921,-0.01441 -0.03842,-0.02882 -0.05763,-0.04322c-0.65316,-0.50908 -1.25829,-1.14783 -2.92,-3.41467c-0.15368,-0.20171 -0.28816,-0.41783 -0.40822,-0.64355l-0.46586,-0.88368c-0.32178,-0.42263 -0.62434,-0.9125 -0.93171,-1.48882c-0.16329,-0.30737 -0.29296,-0.62434 -0.38901,-0.95572c-0.28816,-0.95092 -0.64355,-2.31487 -1.0902,-4.16388c-0.02401,-0.09605 -0.04322,-0.19691 -0.06243,-0.29296c-0.23053,-1.25349 -0.34099,-2.69908 -0.34099,-4.41362c0,-2.35329 0.03362,-2.82395 0.09605,-3.2802c0.01921,-0.11046 0.03842,-0.22572 0.06243,-0.33618c0.13928,-0.66757 0.41783,-1.65211 1.51763,-4.28395c0.12967,-0.31697 0.29296,-0.61954 0.48507,-0.9077c0.13928,-0.20651 0.33138,-0.49947 0.57632,-0.87888c1.22947,-2.1852 3.05447,-3.98138 5.41737,-5.33092c2.04592,-1.15263 4.16868,-1.81539 6.33947,-1.98829c0.13928,-0.01441 0.28336,-0.01921 0.42263,-0.01921c0.29776,0 0.5427,0.00961 2.48296,0.19211c0.1825,0.01921 0.3602,0.04322 0.53789,0.08164c0.22092,0.04322 0.50428,0.11046 2.13237,0.52349c0.01921,0.0048 0.03842,0.00961 0.05763,0.01441c1.44559,0.38901 2.7423,1.22467 3.84691,2.48776c1.59447,1.81059 1.92586,3.61638 1.92586,4.81224c0,1.45039 -0.49947,2.85757 -1.41197,3.98138c1.21507,1.15263 2.19,2.44934 2.89599,3.86132c0.21132,0.3698 0.45145,0.83566 0.74921,1.46c0.11046,0.23533 0.20651,0.48026 0.28336,0.73c0.24974,0.82125 0.38901,1.73855 0.43704,2.88638v0.06243c0.01921,0.62434 0.03362,1.07579 0.03842,1.35434c0.14408,1.71934 -0.26895,3.80849 -1.34474,6.88217z" fill="#0013cc" stroke-width="1"/><path d="M248.53617,184.44098c0.11238,0.87312 -0.23917,2.47816 -1.05562,4.8156c-0.31025,0.87312 -1.23956,1.71742 -2.78841,2.53435c-1.38028,0.70359 -2.78841,1.0561 -4.22439,1.0561c-1.97148,0 -3.87284,-0.69062 -5.70312,-2.07041c-0.25358,-0.19691 -0.88753,-0.98502 -1.90088,-2.36578l-0.71847,-1.35146c-0.19691,-0.19691 -0.42215,-0.53453 -0.67573,-1.01384c-0.2531,-0.84478 -0.5912,-2.13957 -1.01336,-3.88629c-0.16953,-0.92979 -0.25358,-2.08434 -0.25358,-3.46414c0,-1.49218 0.01393,-2.33744 0.04226,-2.53435c0.1119,-0.53453 0.52109,-1.64826 1.22515,-3.33735c0.16953,-0.2531 0.40822,-0.61906 0.71799,-1.09836c0.76074,-1.40813 1.92922,-2.56268 3.5064,-3.46414c1.35194,-0.76074 2.73174,-1.19682 4.13987,-1.30968c0.14072,0 0.803,0.05667 1.98589,0.16905c0.14072,0.02834 0.76026,0.18394 1.85862,0.46489c0.42263,0.11286 0.83758,0.40102 1.24628,0.86639c0.40822,0.46441 0.61234,0.90818 0.61234,1.33033c0,0.25358 -0.08453,0.4793 -0.2531,0.67621c-0.2531,0.28143 -0.62002,0.43704 -1.09836,0.46441c-0.45049,0.05715 -0.803,0 -1.0561,-0.16905c-0.1412,-0.30977 -0.52157,-0.70359 -1.14062,-1.18289c-0.70455,-0.28143 -1.39372,-0.42215 -2.06993,-0.42215c-2.0003,0 -3.74605,1.1267 -5.23823,3.37961c-1.32409,2.02719 -1.88743,3.88629 -1.69005,5.57537c1.88647,-1.83028 4.26666,-2.74566 7.13911,-2.74566c0.45049,0 0.9149,0.02834 1.39372,0.08453c0.02786,0 0.11238,0.04226 0.25358,0.12679c1.07003,0 2.21065,0.50764 3.42187,1.52099c1.09836,0.90193 1.91481,1.91529 2.4503,3.04151c0.14072,0.2262 0.35155,0.63347 0.63347,1.22515c0.1119,0.36692 0.18298,0.88753 0.21084,1.56326c0.02737,0.92931 0.04226,1.43647 0.04226,1.52099zM245.95908,184.46355c0.08453,-1.86438 -0.32418,-3.34791 -1.22515,-4.45012c-1.35194,-1.72318 -3.05591,-2.58526 -5.11192,-2.58526c-1.91529,0 -3.91462,1.20114 -5.99849,3.60245c-0.11286,0.05667 -0.26799,0.1412 -0.46489,0.25406c0.5912,3.24994 1.49218,5.56625 2.70388,6.95037c1.35146,1.52628 2.85805,2.24667 4.51976,2.16214c0.64787,0.08453 1.387,-0.00768 2.21786,-0.27567c0.83037,-0.26751 1.44319,-0.64259 1.83797,-1.12286c0.92979,-1.1022 1.43695,-2.61311 1.52099,-4.53512z" fill="#000000" stroke-width="1"/></g></g></svg>