<svg version="1.1" xmlns="http://www.w3.org/2000/svg" xmlns:xlink="http://www.w3.org/1999/xlink" width="136.52808" height="48.28124" viewBox="0,0,136.52808,48.28124"><g transform="translate(-163.08275,-53.80739)"><g data-paper-data="{&quot;isPaintingLayer&quot;:true}" fill-rule="nonzero" stroke-linecap="butt" stroke-linejoin="miter" stroke-miterlimit="10" stroke-dasharray="" stroke-dashoffset="0" style="mix-blend-mode: normal"><path d="" fill="#ffffff" stroke="#000000" stroke-width="2"/><path d="M174.89605,93.29124l4.41033,-14.46855l-4.48083,-16.2072l110.51428,0.55663l-6.54311,16.55298l6.72611,13.60818z" fill="#0010ff" stroke="#000000" stroke-width="17.5"/><path d="M174.24763,93.2735l12.29734,-14.77592l-12.40835,-15.81287l111.35742,0.33306c0,0 -4.51368,6.18307 -6.55067,8.97344c-1.78074,2.43935 -5.0062,6.85774 -5.0062,6.85774l11.11281,14.53556z" fill="#619bff" stroke="#466fb7" stroke-width="4"/><path d="M214.71422,76.23358c0,0.713 -0.07895,1.35033 -0.23685,1.912c-0.1579,0.55911 -0.37071,1.05411 -0.63846,1.48498c-0.26774,0.42831 -0.57666,0.79378 -0.92679,1.09642c-0.35241,0.3052 -0.7197,0.55399 -1.10185,0.74634c-0.38216,0.19235 -0.76775,0.33341 -1.15677,0.42317c-0.39132,0.08719 -0.75861,0.1308 -1.10185,0.1308h-6.3056v-3.12768h6.30562c0.35928,-0.03078 0.68308,-0.11284 0.97142,-0.24621c0.29063,-0.13081 0.53892,-0.30906 0.74487,-0.53475c0.20825,-0.22313 0.36956,-0.49372 0.48398,-0.81174c0.11442,-0.31546 0.17162,-0.67324 0.17162,-1.07334v-1.41958c-0.03661,-0.3924 -0.11213,-0.75275 -0.22655,-1.08104c-0.11442,-0.32829 -0.27003,-0.60913 -0.46684,-0.84252c-0.19452,-0.23339 -0.43135,-0.41548 -0.71054,-0.54629c-0.27918,-0.13337 -0.60185,-0.20005 -0.96798,-0.20005h-6.28502c-0.37073,0 -0.65332,0.10901 -0.84784,0.327c-0.19221,0.21544 -0.28833,0.52705 -0.28833,0.93484v12.85315h-2.79067v-12.85315c0,-0.80019 0.13044,-1.48114 0.39132,-2.04281c0.26317,-0.56167 0.58926,-1.01436 0.97829,-1.35804c0.38902,-0.34368 0.81236,-0.59373 1.27005,-0.75018c0.45768,-0.15645 0.87987,-0.23467 1.26661,-0.23467h6.30562c0.6293,0 1.19453,0.08977 1.69569,0.2693c0.50115,0.17953 0.94281,0.42062 1.32496,0.72326c0.38216,0.30008 0.70711,0.64631 0.97484,1.03871c0.27003,0.3924 0.49199,0.80277 0.66592,1.23108c0.1762,0.42831 0.30322,0.86174 0.38101,1.30031c0.08009,0.43601 0.12014,0.84637 0.12014,1.23107zM231.2214,83.13143v3.12768h-12.72107c-0.20138,0 -0.38789,-0.03975 -0.55951,-0.11926c-0.17162,-0.08208 -0.32037,-0.19236 -0.44623,-0.33086c-0.12357,-0.14107 -0.22082,-0.30776 -0.29176,-0.50012c-0.07323,-0.19235 -0.10984,-0.4001 -0.10984,-0.62323v-15.66538h2.79067v14.11116zM248.3636,86.25912h-2.79067v-4.23181h-9.80339v4.23181h-2.79067v-8.62135c0,-1.25673 0.19337,-2.4147 0.5801,-3.47394c0.38674,-1.05666 0.92336,-1.96587 1.60987,-2.7276c0.68652,-0.76172 1.49776,-1.35547 2.43369,-1.78121c0.93823,-0.42318 1.96114,-0.63477 3.06871,-0.63477h6.28502c0.19452,0 0.37759,0.03975 0.54921,0.11925c0.17162,0.07951 0.32152,0.19107 0.44966,0.33469c0.12815,0.14619 0.22769,0.31547 0.29863,0.50782c0.07322,0.19235 0.10984,0.39625 0.10984,0.61169zM235.76954,78.89963h9.80339v-6.7555h-4.9017c-0.08467,0 -0.26545,0.0141 -0.54235,0.04232c-0.2746,0.02821 -0.59268,0.09874 -0.95425,0.21159c-0.36157,0.11285 -0.74258,0.28469 -1.14304,0.51551c-0.40047,0.23339 -0.76889,0.55398 -1.10528,0.96176c-0.33411,0.41035 -0.611,0.92203 -0.83068,1.535c-0.21739,0.61298 -0.3261,1.35546 -0.3261,2.22747zM266.2541,69.02027v5.77064c0,0.713 -0.08008,1.35034 -0.24027,1.91201c-0.16019,0.55911 -0.373,1.05411 -0.63846,1.48497c-0.26546,0.42831 -0.57439,0.79378 -0.92679,1.09642c-0.35469,0.3052 -0.72199,0.55655 -1.10184,0.75403c-0.37758,0.19492 -0.76204,0.33726 -1.15334,0.42702c-0.38902,0.08719 -0.75516,0.1308 -1.09843,0.1308h-1.12587v5.66293h-2.81127v-5.66293h-1.11558c-0.34326,0 -0.70939,-0.04361 -1.09842,-0.1308c-0.38902,-0.08977 -0.77576,-0.2321 -1.1602,-0.42702c-0.38216,-0.1975 -0.74829,-0.44882 -1.09842,-0.75403c-0.35012,-0.30263 -0.65906,-0.66811 -0.9268,-1.09642c-0.26774,-0.43087 -0.48284,-0.92844 -0.64532,-1.49268c-0.16019,-0.56423 -0.24028,-1.19901 -0.24028,-1.90431v-5.77064h2.78725v5.77064c0,0.40779 0.0572,0.77456 0.17162,1.10027c0.11442,0.32315 0.27575,0.60143 0.48399,0.83482c0.20824,0.23082 0.45996,0.40907 0.75517,0.53474c0.2975,0.12311 0.62816,0.18466 0.99201,0.18466h5.03214c0.26546,-0.04617 0.53777,-0.10773 0.81695,-0.18466c0.27689,-0.07693 0.52976,-0.20774 0.7586,-0.39239c0.22883,-0.18467 0.41878,-0.44114 0.5698,-0.76943c0.15104,-0.32829 0.22655,-0.76429 0.22655,-1.30802v-5.77064z" fill="#ffffff" stroke="#0a0f19" stroke-width="9"/><path d="M214.62839,76.14776c0,0.713 -0.07895,1.35033 -0.23684,1.912c-0.1579,0.55911 -0.37072,1.05411 -0.63845,1.48498c-0.26774,0.42831 -0.57667,0.79379 -0.92679,1.09642c-0.35241,0.3052 -0.71969,0.55398 -1.10185,0.74634c-0.38216,0.19235 -0.76775,0.33342 -1.15677,0.42318c-0.39132,0.0872 -0.7586,0.1308 -1.10185,0.1308h-6.3056v-3.12768h6.30562c0.35928,-0.03078 0.68308,-0.11285 0.97141,-0.24623c0.29062,-0.13081 0.53892,-0.30906 0.74486,-0.53474c0.20824,-0.22313 0.36957,-0.49371 0.48399,-0.81174c0.11442,-0.31546 0.17162,-0.67324 0.17162,-1.07334v-1.41958c-0.03661,-0.3924 -0.11213,-0.75274 -0.22655,-1.08102c-0.11442,-0.32829 -0.27002,-0.60913 -0.46684,-0.84252c-0.19452,-0.23339 -0.43136,-0.4155 -0.71054,-0.54629c-0.27918,-0.13336 -0.60185,-0.20005 -0.96798,-0.20005h-6.28501c-0.37073,0 -0.65332,0.109 -0.84784,0.327c-0.19221,0.21544 -0.28834,0.52706 -0.28834,0.93485v12.85315h-2.79067v-12.85315c0,-0.80019 0.13044,-1.48114 0.39131,-2.04281c0.26317,-0.56167 0.58926,-1.01435 0.97828,-1.35802c0.38902,-0.34367 0.81236,-0.59373 1.27004,-0.75019c0.45768,-0.15645 0.87989,-0.23467 1.26662,-0.23467h6.3056c0.6293,0 1.19454,0.08977 1.69569,0.2693c0.50115,0.17953 0.94281,0.42061 1.32496,0.72324c0.38216,0.30008 0.70711,0.64632 0.97484,1.03872c0.27002,0.3924 0.49201,0.80275 0.66592,1.23107c0.1762,0.42831 0.3032,0.86176 0.38101,1.30032c0.08009,0.43601 0.12014,0.84636 0.12014,1.23107zM231.13558,83.04561v3.12769h-12.72107c-0.20138,0 -0.38788,-0.03975 -0.55951,-0.11926c-0.17162,-0.08206 -0.32038,-0.19236 -0.44623,-0.33085c-0.12357,-0.14107 -0.22082,-0.30777 -0.29176,-0.50012c-0.07323,-0.19235 -0.10983,-0.4001 -0.10983,-0.62323v-15.66538h2.79067v14.11115zM248.27778,86.1733h-2.79067v-4.23181h-9.80339v4.23181h-2.79067v-8.62135c0,-1.25671 0.19337,-2.4147 0.5801,-3.47394c0.38674,-1.05666 0.92336,-1.96587 1.60987,-2.7276c0.68652,-0.76172 1.49774,-1.35547 2.43369,-1.7812c0.93823,-0.42318 1.96114,-0.63477 3.06871,-0.63477h6.28501c0.19452,0 0.37759,0.03976 0.54921,0.11926c0.17162,0.0795 0.32152,0.19107 0.44966,0.33469c0.12815,0.14619 0.2277,0.31547 0.29863,0.50782c0.07322,0.19235 0.10983,0.39625 0.10983,0.6117zM235.68372,78.81379h9.80339v-6.7555h-4.90169c-0.08467,0 -0.26545,0.0141 -0.54236,0.04231c-0.2746,0.02821 -0.59269,0.09874 -0.95425,0.21159c-0.36157,0.11284 -0.74258,0.28468 -1.14304,0.51551c-0.40047,0.23339 -0.76889,0.55399 -1.10529,0.96178c-0.3341,0.41035 -0.61099,0.92202 -0.83067,1.535c-0.21739,0.61298 -0.3261,1.35545 -0.3261,2.22747zM266.16828,68.93445v5.77064c0,0.713 -0.08009,1.35034 -0.24027,1.91201c-0.16018,0.55911 -0.373,1.0541 -0.63846,1.48497c-0.26545,0.42831 -0.5744,0.79379 -0.9268,1.09642c-0.35469,0.3052 -0.72198,0.55655 -1.10185,0.75403c-0.37758,0.19492 -0.76203,0.33726 -1.15334,0.42703c-0.38902,0.0872 -0.75517,0.1308 -1.09842,0.1308h-1.12588v5.66293h-2.81126v-5.66293h-1.11559c-0.34326,0 -0.70939,-0.04361 -1.09842,-0.1308c-0.38902,-0.08977 -0.77576,-0.23212 -1.16021,-0.42703c-0.38216,-0.19748 -0.74829,-0.44883 -1.09842,-0.75403c-0.35012,-0.30263 -0.65906,-0.66811 -0.92679,-1.09642c-0.26774,-0.43087 -0.48285,-0.92843 -0.64532,-1.49268c-0.16018,-0.56423 -0.24028,-1.19901 -0.24028,-1.90431v-5.77064h2.78724v5.77064c0,0.40779 0.05721,0.77455 0.17163,1.10026c0.11442,0.32315 0.27575,0.60143 0.48399,0.83482c0.20824,0.23082 0.45996,0.40908 0.75517,0.53475c0.2975,0.1231 0.62816,0.18466 0.99201,0.18466h5.03213c0.26545,-0.04617 0.53777,-0.10772 0.81695,-0.18466c0.27689,-0.07695 0.52976,-0.20774 0.7586,-0.3924c0.22883,-0.18466 0.41878,-0.44113 0.56981,-0.76941c0.15104,-0.32829 0.22655,-0.76429 0.22655,-1.30802v-5.77064z" fill="#000000" stroke="#619bff" stroke-width="2"/></g></g></svg>