<svg version="1.1" xmlns="http://www.w3.org/2000/svg" xmlns:xlink="http://www.w3.org/1999/xlink" width="46.33321" height="42.98015" viewBox="0,0,46.33321,42.98015"><defs><radialGradient cx="240" cy="180" r="23.16661" gradientUnits="userSpaceOnUse" id="color-1"><stop offset="0" stop-color="#0013cc"/><stop offset="1" stop-color="#0013cc" stop-opacity="0"/></radialGradient></defs><g transform="translate(-216.83339,-158.50992)"><g data-paper-data="{&quot;isPaintingLayer&quot;:true}" fill-rule="nonzero" stroke="none" stroke-linecap="butt" stroke-linejoin="miter" stroke-miterlimit="10" stroke-dasharray="" stroke-dashoffset="0" style="mix-blend-mode: normal"><path d="M263.16661,180c0,11.86864 -10.37204,21.49008 -23.16661,21.49008c-12.79456,0 -23.1666,-9.62144 -23.1666,-21.49008c0,-11.86864 10.37204,-21.49007 23.1666,-21.49007c12.79457,0 23.16661,9.62144 23.16661,21.49007z" fill="url(#color-1)" stroke-width="0"/><path d="M252.85739,185.53183c-0.00434,0.06513 -0.01303,0.13026 -0.02605,0.19539c-0.12592,0.88579 -0.46461,1.65868 -1.04211,2.7746c-1.18105,2.34908 -3.07421,4.19013 -5.62737,5.47105c-1.93224,0.96829 -3.91224,1.49368 -5.88789,1.57184c-0.26921,0.00868 -0.50368,0.01303 -0.73816,0.01303c-6.43066,0 -9.9825,-3.02645 -11.82789,-5.56658c-0.33434,-0.45592 -0.5775,-0.96395 -0.72947,-1.49803c-0.71211,-1.51539 -1.02908,-3.0221 -0.94224,-4.48974c0.03474,-0.61658 0.14329,-1.31132 0.33868,-2.13197c0.00868,-0.61658 0.13895,-1.22447 0.38211,-1.79329c0.26053,-0.61224 0.54276,-1.19408 0.84237,-1.74987c-0.43421,-0.54711 -0.79026,-1.14197 -1.06382,-1.78026c-0.01303,-0.03039 -0.02605,-0.06079 -0.03908,-0.09118c-0.75553,-1.85408 -0.75553,-3.81237 0,-5.66645c0.01303,-0.03474 0.03039,-0.06947 0.04342,-0.09987c0.89882,-2.0625 2.46632,-3.81237 4.66342,-5.19316c2.11026,-1.32868 4.20316,-2.02776 6.21789,-2.07118h2.20579c2.2275,0 4.24658,0.46461 6.00079,1.38513c2.50105,1.30263 4.20316,3.39118 4.91092,6.03987c0.29092,1.04645 0.56013,2.42289 0.13895,3.89053c-0.07816,0.29526 -0.17368,0.58184 -0.28224,0.86408c2.1971,2.34474 2.70079,4.69816 2.68342,6.41329c0.01303,0.56447 -0.00868,1.51105 -0.22145,3.51276z" fill="#0013cc" stroke-width="1"/><path d="M248.29861,182.04989c0.02475,0.53582 -0.03821,1.53059 -0.19062,2.98433c-0.02649,0.17889 -0.21711,0.6118 -0.57316,1.30046c-0.71341,1.42855 -1.88447,2.55055 -3.51363,3.3673c-1.32434,0.66304 -2.63522,1.02039 -3.93438,1.0712c-3.8445,0.12809 -6.6838,-1.06946 -8.51704,-3.59049c0,-0.07642 -0.01303,-0.165 -0.03821,-0.26747c-0.53451,-0.96699 -0.7768,-1.84539 -0.72557,-2.63479c0.02518,-0.48328 0.16543,-1.18409 0.42032,-2.10071c-0.02605,-0.0508 -0.05124,-0.12722 -0.07642,-0.22883c0.891,-2.08812 2.01083,-3.6287 3.36079,-4.62217c-1.90966,-0.6613 -3.10678,-1.55274 -3.59049,-2.673c-0.2805,-0.68779 -0.2805,-1.37514 0,-2.0625c0.50933,-1.17107 1.45157,-2.18972 2.82628,-3.05554c1.37514,-0.86495 2.63522,-1.31132 3.78154,-1.3365c0.25401,0 0.64914,0 1.18409,0c0.30525,0 0.61093,0 0.91662,0c1.45113,0 2.71164,0.2805 3.7811,0.8415c1.32347,0.68866 2.16367,1.70905 2.52103,3.06075c0.17716,0.63829 0.22883,1.08466 0.15284,1.33911c-0.35692,1.30089 -1.28657,2.44895 -2.7885,3.44372c0.30568,0.12766 0.71254,0.30612 1.22187,0.53538c0.38254,0.10247 0.89143,0.31871 1.52842,0.65045c1.55274,1.27484 2.30392,2.60049 2.25312,3.9778zM245.66469,184.70031c0.20278,-1.19668 0.30438,-1.96003 0.30438,-2.29133c0,-1.01822 -0.34346,-1.83367 -1.02864,-2.44417c-1.01562,-0.86538 -2.69037,-1.45157 -5.02555,-1.75725c-0.17803,-0.12722 -0.39383,-0.25445 -0.64741,-0.38167c-0.45722,-0.0508 -0.74988,-0.06339 -0.87624,-0.03821c-1.01605,0.12722 -2.0816,0.82761 -3.19796,2.10071c-1.24445,1.40033 -1.86624,2.80109 -1.86624,4.20142c0,1.50237 0.68475,2.68689 2.05599,3.55184c1.19321,0.76421 2.5892,1.14588 4.18839,1.14588c0.48241,0 0.93963,-0.03821 1.3708,-0.11463c0.86278,-0.07642 1.80197,-0.50889 2.81759,-1.29829c1.11766,-0.86582 1.75204,-1.75768 1.90488,-2.6743zM243.25699,171.49597c-0.2805,-0.38428 -0.80199,-0.73686 -1.56576,-1.05774c-0.76378,-0.31958 -1.41292,-0.46721 -1.94743,-0.44246c-0.43334,0.02605 -0.99304,0.08945 -1.68039,0.19192c-0.20451,0.05124 -0.71341,0.20538 -1.52799,0.46113c-0.56057,0.20538 -1.18453,0.60312 -1.87188,1.19147c-0.81501,0.69257 -1.19712,1.28222 -1.14588,1.76897c0.15284,1.43507 1.57879,2.17843 4.27784,2.22967c1.22187,-0.02562 2.21534,-0.15371 2.97912,-0.38428c0.40686,-0.10247 0.90316,-0.25618 1.48934,-0.46113c0.9418,-0.61484 1.41336,-1.3708 1.41336,-2.26875c0,-0.43464 -0.14068,-0.84497 -0.42032,-1.22882z" fill="#000000" stroke-width="1"/></g></g></svg>