<svg version="1.1" xmlns="http://www.w3.org/2000/svg" xmlns:xlink="http://www.w3.org/1999/xlink" width="52.65138" height="48.84109" viewBox="0,0,52.65138,48.84109"><defs><radialGradient cx="240" cy="180" r="26.32569" gradientUnits="userSpaceOnUse" id="color-1"><stop offset="0" stop-color="#0013cc"/><stop offset="1" stop-color="#0013cc" stop-opacity="0"/></radialGradient></defs><g transform="translate(-213.67431,-155.57946)"><g data-paper-data="{&quot;isPaintingLayer&quot;:true}" fill-rule="nonzero" stroke="none" stroke-linecap="butt" stroke-linejoin="miter" stroke-miterlimit="10" stroke-dasharray="" stroke-dashoffset="0" style="mix-blend-mode: normal"><path d="M266.32569,180c0,13.48709 -11.78641,24.42054 -26.32569,24.42054c-14.53928,0 -26.32569,-10.93345 -26.32569,-24.42054c0,-13.48709 11.78641,-24.42054 26.32569,-24.42054c14.53928,0 26.32569,10.93345 26.32569,24.42054z" fill="url(#color-1)" stroke-width="0"/><path d="M254.70392,182.11676v2.68914c0,1.12993 -0.27632,2.4523 -0.98684,4.71217c-0.06415,0.19737 -0.13816,0.3898 -0.22204,0.5773c-0.34046,0.76974 -0.87335,1.54934 -2.10691,3.09375c-0.03454,0.03947 -0.06908,0.08389 -0.10362,0.12336c-3.16776,3.7204 -7.23849,5.68914 -11.77303,5.68914c-2.17599,0 -4.24835,-0.48355 -6.16283,-1.44079c-0.52303,-0.26151 -0.99671,-0.60691 -1.41118,-1.02138c-0.13322,-0.13322 -0.55757,-0.52303 -1.58882,-1.28783c-0.84868,-0.62171 -1.4852,-1.4704 -1.85526,-2.43257c-0.26151,-0.35526 -0.5329,-0.71053 -0.81908,-1.06579c-0.5773,-0.72533 -0.96217,-1.58388 -1.11513,-2.49178c-0.03454,-0.12335 -0.12335,-0.3898 -0.31085,-0.87335c-0.5773,-1.45559 -0.88816,-2.45724 -0.88816,-3.58224c0,-1.32237 0.40954,-2.59539 1.16447,-3.68092c-0.22697,-0.3454 -0.43421,-0.71546 -0.61678,-1.1102c-0.4046,-0.86349 -0.56743,-1.81579 -0.48355,-2.76809c0,-0.01974 0.0148,-0.16777 0.01974,-0.5477c-0.08882,-0.64145 -0.19244,-1.48026 -0.31086,-2.51151c-0.11349,-1.00658 -0.30098,-2.60033 -0.55263,-4.79112c-0.27138,-1.96382 0.1875,-3.85855 1.2977,-5.33388c1.45559,-1.97862 3.86349,-3 7.12007,-3c0.52796,0 1.16941,0.02467 1.95889,0.07895c0.37993,0.02467 0.66611,0.03947 0.84868,0.04934c1.19408,-0.05921 2.73355,-0.09869 4.68257,-0.12829c0.07895,-0.00493 0.30592,-0.03454 0.78948,-0.11348c1.09046,-0.19243 1.88487,-0.27632 2.57072,-0.27632c3.57237,0 6.34046,2.26973 6.87829,5.6546c0.05921,0.36513 0.07895,0.7352 0.06414,1.10526c-0.00987,0.1875 -0.01973,0.76974 0.06908,2.18586c0.14309,1.03125 0.22697,2.31414 -0.07895,3.61677c1.5296,1.50493 2.6398,3.35526 3.26645,5.48191c0.49835,1.74671 0.65625,2.56086 0.65625,3.39967z" fill="#0013cc" stroke-width="1"/><path d="M249.2753,184.80541c0,0.49243 -0.24622,1.51925 -0.73766,3.08142c-0.11596,0.26053 -0.57927,0.89753 -1.38898,1.91003c-2.14145,2.51743 -4.6875,3.77566 -7.63865,3.77566c-1.33076,0 -2.57566,-0.28964 -3.73224,-0.86793c-0.49194,-0.49243 -1.23009,-1.09984 -2.21299,-1.82319c-0.0296,-0.28865 -0.24622,-0.69424 -0.65083,-1.2153c-0.31875,-0.43372 -0.65132,-0.86792 -0.99819,-1.30214c-0.0296,-0.31826 -0.2319,-0.96908 -0.6074,-1.95296c-0.34737,-0.86842 -0.52105,-1.40329 -0.52105,-1.60608c0,-0.34688 0.1801,-0.65773 0.54276,-0.93306c0.36118,-0.27484 0.74458,-0.4125 1.15017,-0.4125c0.54918,0 0.92566,0.26003 1.12845,0.78108c0,0.28964 0.01382,0.73816 0.04342,1.34605c0.17368,0.83931 0.57829,1.76497 1.2153,2.77747c0.72286,1.12846 1.46053,1.89572 2.21299,2.30033c0.86842,0.43421 1.76447,0.65083 2.69111,0.65083c1.6199,0 3.06661,-0.62418 4.34014,-1.87155c0.69424,-0.6676 1.09983,-1.07467 1.21529,-1.21973c0.31826,-0.34786 0.5926,-0.84079 0.825,-1.47977c-0.05822,-0.23191 -0.0296,-0.40609 0.08684,-0.52303c0.26003,-0.20279 0.36118,-0.71052 0.30345,-1.52368c0,-0.11497 0.02172,-0.30395 0.06514,-0.56546c0.04342,-0.26102 0.06563,-0.46431 0.06563,-0.60938c0,-0.02862 -0.10214,-0.6523 -0.30395,-1.87155c-0.08684,-0.08734 -0.17368,-0.18898 -0.26003,-0.30542c-0.17418,-1.56661 -1.17237,-2.74195 -2.99507,-3.52599c-1.4176,-0.60888 -2.87911,-0.87089 -4.38355,-0.78404c-0.46283,0.0301 -1.07862,0.10411 -1.84441,0.22204c-0.76727,0.11842 -1.32385,0.29655 -1.67122,0.5329c-1.27352,0.77072 -2.19918,1.1551 -2.77747,1.1551c-0.69424,0 -1.2301,-0.4051 -1.60609,-1.2153c0.02862,-0.31875 0.04342,-0.78158 0.04342,-1.38898c-0.08684,-0.6074 -0.20279,-1.53306 -0.34688,-2.77747c-0.11596,-1.01299 -0.30395,-2.6329 -0.56448,-4.86118c-0.08684,-0.57878 0.00001,-1.04161 0.26004,-1.38898c0.4046,-0.54918 1.33026,-0.82451 2.77796,-0.82451c0.4046,0 0.93947,0.02171 1.60559,0.06513c0.66563,0.04342 1.08503,0.06513 1.25872,0.06513c1.15707,-0.05724 2.73454,-0.10066 4.73092,-0.13026c0.31826,0 0.85313,-0.06514 1.60609,-0.1954c0.75197,-0.13076 1.30214,-0.19539 1.64951,-0.19539c0.89654,0 1.40329,0.36217 1.51875,1.08503c-0.02911,0.63701 0,1.6347 0.08734,2.99457c0.17368,1.12846 0.13027,1.86611 -0.13076,2.21348c-0.57878,0.26003 -1.05691,0.3903 -1.43191,0.3903c-0.66612,0 -1.11464,-0.30345 -1.34605,-0.91135c-0.14507,-0.37599 -0.21661,-0.86842 -0.21661,-1.47583c0.02862,-0.78109 0.01431,-1.28684 -0.04342,-1.51875c-0.86793,-0.02862 -2.17007,0.0148 -3.90592,0.13027c-0.69474,0.05822 -2.32994,0.2319 -4.90461,0.52105c-0.08684,0.05822 -0.18848,0.13027 -0.30345,0.21661c-0.05822,0.43421 0,1.38898 0.17368,2.8648c0.2023,1.56266 0.30395,2.53223 0.30395,2.90822c0.02862,0 0.43372,-0.13026 1.2153,-0.39079c0.37549,-0.05724 0.92566,-0.14458 1.64901,-0.26004c0.95526,-0.23141 1.96727,-0.34736 3.03848,-0.34736c2.14095,0 4.00707,0.4199 5.59885,1.25872c1.88092,1.01349 3.11003,2.50313 3.68931,4.47089c0.28915,1.01299 0.43421,1.63471 0.43421,1.86612v2.69111z" fill="#000000" stroke-width="1"/></g></g></svg>